<?xml version="1.0" encoding="utf-8"?>
<!-- Generator: Adobe Illustrator 16.0.0, SVG Export Plug-In . SVG Version: 6.00 Build 0)  -->
<!DOCTYPE svg PUBLIC "-//W3C//DTD SVG 1.1//EN" "http://www.w3.org/Graphics/SVG/1.1/DTD/svg11.dtd">
<svg version="1.1" id="Layer_1" xmlns="http://www.w3.org/2000/svg" xmlns:xlink="http://www.w3.org/1999/xlink" x="0px" y="0px"
	 width="728px" height="90px" viewBox="0 0 728 90" enable-background="new 0 0 728 90" xml:space="preserve">
<g id="Layer_2">
	<rect fill="#FFFBF8" width="728" height="90"/>
	<rect fill="#F9ECDC" width="728" height="90"/>
	<path fill="#1882A1" d="M41.322-0.104L35.836,7.1c6.886,0.516,13.767,1.13,20.567,2.516c1.956,0.397,3.981,0.441,5.93,0.549
		c2.206,0.122,4.463,0.069,6.68,0.287c6.588,0.646,79.833,1.241,86.39,2.168c4.582,0.646,9.196,0.389,13.795,1.112
		c3.828,0.602,7.649,1.51,11.645,1.431c3.69-0.074,68.291,44.282,71.918,47.771c2.42,2.324,6.339,1.777,9.513,2.65
		c-1.916,1.458-2.847,3.088-1.056,4.646c3.606,3.135,11.803,1.129,15.988,0.487c0.399-0.06,0.784-0.139,1.155-0.233
		c-0.281,0.936,0.334,1.688,1.415,1.289c1.677-0.627,3.333-0.242,4.983-0.373c1.401-0.108,2.866-0.158,4.226,0.464
		c0.48,0.219,1.149,0.391,1.058,1.065c-0.109,0.793-0.775,0.549-1.286,0.471c-0.264-0.041-0.524-0.154-0.784-0.152
		c-0.556,0.009-1.166,0.122-1.142,0.854c0.024,0.758,0.65,0.793,1.196,0.711c1.37-0.209,2.657,0.181,3.949,0.553
		c0.348,0.099,0.703,0.253,0.649,0.729c-0.046,0.416-0.355,0.59-0.706,0.733c-0.703,0.287-1.625-0.388-2.282,0.687
		c1.469,1.094,3.199,1.012,4.802,1.19c1.166,0.13,2.268,0.383,3.385,0.709c0.984,0.287,1.957,0.465,1.725,2.241
		c0.789-1.51,1.767-1.57,2.9-1.496c1.502,0.096,3.014,0.422,4.521,0.055c-0.098-0.165-0.189-0.349-0.195-0.505
		c0.006,0.156,0.101,0.34,0.196,0.503c7.128,0.793,14.271,0.561,21.404,0.221c3.581-0.17,7.146,0.196,10.729,0.034
		c5.354-0.239,10.725-0.229,16.087-0.157c5.624,0.069,11.242-0.02,16.858-0.238c1.108-0.045,1.896,0.125,2.008,1.842
		c1.278-1.801,2.677-1.969,4.299-1.969c2.396,0.002,4.796-0.428,7.197-0.582c1.229-0.08,2.485-0.441,3.688,0.188
		c0.001,0-0.008,0.01-0.016,0.018c0.223-0.146,0.448-0.424,0.66-0.41c3.042,0.179,6.045-0.485,9.076-0.45
		c1.958,0.022,3.905-0.021,5.856-0.345c3.072-0.51,6.188-0.51,9.293-0.521c0.532,2.379,0.244,2.896-1.809,2.65
		c-2.583-0.307-5.169-0.125-7.753-0.26c-5.061-0.263-10.127-0.418-15.021,1.377c-0.01,0.012-0.014,0.021-0.022,0.031
		c-0.008-0.012-0.017-0.02-0.022-0.025c-0.161-0.006-0.351,0.031-0.459-0.051c-0.183-0.129-0.111-0.305,0.086-0.244
		c0.141,0.039,0.252,0.186,0.373,0.295c0.01,0,0.02-0.002,0.026-0.002c0.009-0.002,0.016-0.002,0.021-0.004
		c0.641-0.793,0.188-1.418-0.313-2.031c-0.761,0.889-1.669,1.596-2.759,2.111c0.646,1.166,1.564,1.215,2.424,1.26
		c4.375,0.222,8.77,0.285,13.124,0.602c3.725,0.27,7.447-0.367,11.146,0.35c1.781,0.348,3.547-0.246,5.325-0.315
		c1.972-0.079,3.929-0.079,5.893,0c8.21,0.33,16.411-0.168,24.617-0.241c5.981-0.057,11.958-0.271,17.919-0.812
		c0.438-0.037,0.869-0.178,1.303-0.269c0,0,0,0,0.001,0.003c0.311,0.01,0.616,0.021,0.925,0.031c1.099,0.532,2.23,0.406,3.378,0.255
		c1.729-0.233,3.397-0.521,5.202,0.03c1.289,0.396,2.645-0.604,3.931-1.117c0.151-0.059,0.312-0.109,0.471-0.15
		c2.186,0.77,4.299,0.16,6.416-0.361c0.146-0.037,0.295-0.072,0.44-0.1c0.773,0.461,1.521,0.506,2.228-0.15
		c0.156-0.057,0.312-0.104,0.47-0.15c0.21-0.007,0.421-0.013,0.632-0.021h0.002c1.424-0.131,2.847-0.277,4.271-0.398
		c6.854-0.583,13.709-1.181,20.563-1.727c3.824-0.303,7.625-0.816,11.438-1.202c3.723-0.379,7.438-0.991,11.199-0.918
		c0.051,0.888-0.229,1.979,1.211,1.938c0.639-0.021,1.229,0.199,1.707,0.688c0.713,0.73,1.679,0.872,2.508,0.672
		c2.578-0.631,5.221,0.08,7.779-0.564c0.601-0.15,1.334-0.431,1.819-0.207c1.484,0.682,2.608-0.131,3.77-0.771
		c0.732-0.406,1.438-0.506,2.269-0.555c3.604-0.225,7.267-0.252,10.777-1.02c3.812-0.83,7.646-0.846,11.471-1.279
		c0.959-0.107,1.416,0.012,1.904,0.914c0.545,1.01,1.295,1.104,1.557-0.273c0.181-0.955,0.781-1.159,1.535-1.239
		c0.09-0.011,0.178-0.036,0.266-0.033c3.625,0.093,7.107-0.993,10.668-1.427c1.941-0.232,5.258,0.189,7.015-0.866
		c0.383-0.103,0.765-0.202,1.146-0.306c0.406,0.207,0.822,0.279,1.277,0.189c3.668-0.728,14.479-1.201,18.18-1.73
		c8.075-1.157,21.004-1.771,27.704-3.637c1.529-0.432,2.39-0.346,3.411-1.187c0.563-0.354,0.802-0.729,0.996-0.589
		c5.173-4.938,11.382-12.098,16.555-17.031c10.86-10.36,12.159-17.073,18.217-34.39L701.509-1L41.322-0.104z M278.751,64.473
		c-0.315-0.146-0.651-0.283-1-0.412c0.616-0.261,1.236-0.514,1.853-0.771C279.377,63.725,279.068,64.15,278.751,64.473z
		 M295.06,76.805c-0.14-0.068-0.355-0.103-0.398-0.211c-0.039-0.101,0.103-0.281,0.163-0.43c0.141,0.066,0.354,0.1,0.399,0.209
		C295.265,76.473,295.123,76.656,295.06,76.805z M301.898,77.915c-0.108,0.04-0.279-0.106-0.422-0.174
		c0.063-0.149,0.098-0.386,0.199-0.423c0.109-0.039,0.277,0.104,0.422,0.177C302.034,77.643,302,77.879,301.898,77.915z
		 M309.022,73.318c-0.46-0.103-0.844-0.264-1.131-0.668c-0.302-0.426-0.729-0.558-1.187-0.332
		c-3.599,1.765-7.116-0.062-10.661-0.301c-2.678-0.187-5.16-1.938-7.831-1.731c-1.86,0.147-2.406-0.904-3.179-2.068
		c-0.159-0.237-0.352-0.465-0.181-0.751c0.216-0.359,0.591-0.457,0.931-0.299c0.396,0.186,0.828,0.412,1.1,0.749
		c0.69,0.851,1.141,0.735,1.932-0.007c1.232-1.153,2.728-1.344,4.19-0.291c0.372,0.27,0.72,0.531,1.188,0.605
		c2.552,0.396,5.09,0.979,7.654,1.17c2.57,0.188,5.159,0.717,7.75,0.135c-0.559-0.84-1.365-1.075-2.255-1.248
		c0.89,0.173,1.696,0.408,2.257,1.246c0.177,0.064,0.351,0.136,0.521,0.205c0.213,0.515,0.467,1.019,0.631,1.55
		C311.328,73.143,310.827,73.709,309.022,73.318z M351.259,78.003c0-0.003,0-0.003,0-0.003c-0.005-0.174-0.004-0.352,0.004-0.527
		C351.255,77.648,351.254,77.826,351.259,78.003z M366.549,75.886c-0.124-0.007-0.249-0.014-0.373-0.021
		C366.3,75.872,366.425,75.879,366.549,75.886c0.126,0.054,0.251,0.106,0.378,0.161C366.8,75.992,366.675,75.939,366.549,75.886z
		 M367.283,73.855c-0.229-0.02-0.325-0.223-0.188-0.401c0.085-0.11,0.323-0.188,0.446-0.146c0.107,0.041,0.15,0.273,0.22,0.424
		C367.603,73.777,367.439,73.868,367.283,73.855z M377.917,75.829l0.123,0.019C378.04,75.848,377.916,75.829,377.917,75.829z
		 M392.286,70.301c-1.379-0.081-1.67,0.613-1.57,1.811c-0.804,0.164-1.579,0.104-2.303-0.336c0,0-0.123-0.147-0.125-0.15
		c0-0.003,0-0.003,0.001-0.003l-0.05-0.188c-0.074-0.141-0.136-0.293-0.234-0.414c-0.035-0.041-0.162,0.004-0.248,0.008
		c0,0,0,0-0.001-0.002c-0.278,0.002-0.556,0.007-0.835,0.009c-2.799-0.104-5.588-0.017-8.36,0.438l-0.006-0.002
		c-0.248-0.168-0.5-0.18-0.759-0.021c-3.704,0.1-7.412,0.124-11.11,0.335c-1.642,0.093-3.353-0.461-4.93,0.438
		c0.011,0.002,0.021,0.002,0.032,0.004c-0.007,0.008-0.015,0.016-0.021,0.021c0.363,0.611,0.979,0.583,1.55,0.643
		c0.661,0.062,1.317,0.111,1.778,0.711c0.015-0.004,0.023-0.009,0.035-0.014c0.032-0.005,0.064-0.007,0.097-0.011
		c0.165-0.161,0.298-0.55,0.573-0.067c-0.189,0.022-0.384,0.043-0.573,0.067c-0.029,0.024-0.06,0.05-0.093,0.06
		c-0.012-0.017-0.024-0.021-0.039-0.035c-3.843,1.34-7.83,1.021-9.922-0.812c0.726-0.433,1.41,0.233,2.077,0.095
		c1.495-0.312,3.193,0.914,4.517-0.637c-0.006-0.006-0.013-0.014-0.018-0.021c0.002,0,0.005-0.002,0.007-0.002
		c-2.7-0.604-5.46-0.307-8.183-0.617c-0.734-0.084-1.229,0.277-0.856,1.199c0.3,0.744-0.058,0.965-0.712,1.061
		c-3.438,0.49-6.834,0.615-10.258-0.361c-1.375-0.395-2.93-0.867-4.391-0.011c-0.729-0.72-1.33-0.34-1.912,0.237
		c-0.259-0.053-0.521-0.104-0.777-0.154c-0.636-0.434-1.15-0.604-1.06,0.54c0.261,0.028,0.476-0.036,0.663-0.16
		c-0.188,0.124-0.402,0.188-0.662,0.16c-0.392,0.271-0.812,0.374-1.271,0.267c-0.01-0.182,0.045-0.47-0.039-0.523
		c-1.395-0.895-3.854-0.68-5.219,0.43c0.559,0.434,1.123,0.637,1.688,0.7c-0.562-0.063-1.129-0.269-1.688-0.698
		c-0.131,0.102-0.271,0.186-0.422,0.248c-2.633-0.52-5.181-1.946-7.976-0.861c-0.52,0.021-1.034,0.036-1.557,0.055
		c-0.479,0.197-0.96,0.154-1.438-0.006c-0.271-0.033-0.537-0.067-0.807-0.104c-0.136,0.107-0.211,0.271-0.255,0.445
		c0.044-0.18,0.119-0.338,0.255-0.447c-0.599-0.521-1.373-0.297-2.034-0.533c-0.471-0.169-0.739-0.572-0.612-1.081
		c0.146-0.604,0.565-0.467,1.046-0.354c1.178,0.28,3.477-0.498,4.521-1.438c-0.535-0.354-1.111-0.438-1.7-0.468
		c0.589,0.026,1.163,0.112,1.7,0.466c1.356-0.854,2.577,0.379,3.903,0.276c3.082-0.23,6.188-0.286,9.257-0.447
		c4.075-0.214,8.174,0.127,12.233-0.431c2.842-0.389,5.703,0.156,8.526-0.116c4.82-0.468,9.621-0.278,14.441-0.215
		c2.807,0.036,5.661,0.104,8.498-0.22c1.809-0.205,3.707-0.998,5.521,0.106c1.363,0.909,2.596,0.437,3.787-0.403
		c0.001,0,0.001,0,0.001,0c0.949,0.189,1.887,0.115,2.806-0.188c0.76,0.489,1.49,0.532,2.18-0.146
		c0.701-0.115,1.403-0.287,2.094,0.051c0-0.002,0-0.002,0-0.002c1.802,0.927,3.953-0.014,6.039,1.151
		C395.389,70.768,393.794,70.389,392.286,70.301z M399.347,69.898c0.048-0.166,0.074-0.308,0.136-0.431
		c0.01-0.022,0.19-0.008,0.202,0.024c0.043,0.126,0.052,0.266,0.066,0.398C399.62,69.896,399.487,69.896,399.347,69.898z
		 M461.675,58.629c0,0,0,0-0.003,0c0.003,0,0.003-0.025,0.003-0.025V58.629z M490.938,50.424c0.057-0.078,0.096-0.221,0.145-0.316
		c0.001,0,0.001,0,0.001,0C491.031,50.203,490.992,50.346,490.938,50.424z"/>
	<g id="yZkwaw_1_">
		<g>
			<path fill="#1F2327" d="M693.295,36.896c-0.043-7.062,5.84-13.014,13.154-12.858c6.891,0.15,12.721,5.906,12.562,13.173
				c-0.148,6.883-5.896,12.7-13.151,12.548C698.943,49.611,693.264,43.895,693.295,36.896z M718.761,36.902
				c0.008-6.903-5.566-12.499-12.386-12.614c-7.083-0.117-12.729,5.572-12.835,12.392c-0.11,7.081,5.579,12.732,12.413,12.831
				C713.049,49.611,718.771,43.854,718.761,36.902z"/>
			<path fill="#1F2327" d="M706.154,26.914c5.524,0,9.994,4.48,9.979,10.04c-0.018,5.479-4.502,9.965-10.051,9.93
				c-5.475-0.032-9.972-4.515-9.915-10.092C696.222,31.332,700.68,26.911,706.154,26.914z M706.211,46.734
				c3.058,0.009,6.596-1.564,8.565-5.103c1.798-3.226,1.605-7.292-0.546-10.337c-1.906-2.695-4.551-4.077-7.863-4.255
				c0.041,0.139,0.072,0.245,0.102,0.352c0.021,0.093,0.066,0.192,0.053,0.278c-0.024,0.13,0,0.199,0.116,0.264
				c0.456,0.251,0.733,0.806,0.67,1.32c-0.009,0.082,0.01,0.167,0.015,0.271c0.066-0.041,0.104-0.061,0.165-0.095
				c0,0.16,0,0.297,0,0.431c0.038-0.061,0.046-0.122,0.059-0.182c0.051-0.291,0.133-0.574,0.381-0.755
				c0.229-0.163,0.368-0.382,0.497-0.617c0.054-0.1,0.104-0.204,0.159-0.301c0.016-0.026,0.062-0.051,0.094-0.044
				c0.024,0.009,0.049,0.055,0.053,0.085c0.011,0.082,0.007,0.166,0.007,0.284c0.045-0.07,0.062-0.113,0.1-0.144
				c0.029-0.026,0.074-0.037,0.113-0.058c0.016,0.038,0.04,0.075,0.04,0.112c0,0.06-0.021,0.12-0.026,0.183
				c0.158-0.038,0.191-0.008,0.156,0.151c-0.023,0.119-0.048,0.238-0.076,0.38c0.124-0.046,0.228-0.083,0.365-0.133
				c-0.072,0.176-0.131,0.316-0.196,0.472c0.075-0.01,0.13-0.017,0.22-0.031c-0.104,0.187-0.202,0.345-0.295,0.504
				c0.107,0.012,0.212,0.028,0.316,0.038c0.007,0.021,0.012,0.044,0.02,0.065c-0.145,0.144-0.287,0.288-0.426,0.426
				c0.059,0.014,0.139,0.033,0.261,0.062c-0.146,0.085-0.253,0.15-0.384,0.226c0.119,0.034,0.21,0.062,0.34,0.1
				c-0.164,0.093-0.292,0.167-0.432,0.244c0.072,0.03,0.131,0.057,0.195,0.085c-0.025,0.027-0.041,0.048-0.068,0.079
				c0.171,0,0.328-0.004,0.484,0c0.087,0.006,0.12-0.027,0.113-0.111c-0.007-0.098,0.044-0.126,0.133-0.118
				c0.069,0.007,0.146-0.004,0.215,0.01c0.124,0.021,0.218-0.021,0.312-0.093c0.247-0.195,0.501-0.381,0.745-0.576
				c0.064-0.055,0.115-0.059,0.187-0.003c0.212,0.165,0.436,0.312,0.639,0.483c0.184,0.153,0.374,0.249,0.619,0.208
				c0.049-0.007,0.102,0,0.146,0c0.062,0.32,0.03,0.383-0.232,0.499c-0.021,0.01-0.041,0.022-0.063,0.029
				c-0.1,0.023-0.131,0.086-0.131,0.186c-0.004,0.437-0.013,0.875-0.021,1.312c0,0.046,0.006,0.091,0.011,0.146
				c0.254,0,0.486,0,0.729,0c0.044,0.263,0.056,0.498-0.191,0.672c-0.06,0.041-0.107,0.137-0.111,0.207
				c-0.02,0.791-0.025,1.58-0.031,2.368c-0.012,1.73-0.021,3.462-0.035,5.193c0,0.069-0.042,0.158-0.094,0.201
				c-1.756,1.438-3.514,2.87-5.271,4.302C706.811,46.244,706.525,46.479,706.211,46.734z M705.88,46.761
				c0.007-0.016,0.015-0.03,0.021-0.047c-0.029-0.026-0.062-0.056-0.097-0.083c-1.979-1.659-3.959-3.318-5.938-4.976
				c-0.089-0.073-0.124-0.15-0.124-0.265c0.014-1.278,0.021-2.558,0.031-3.837c0.006-1.218,0.008-2.436,0.02-3.654
				c0-0.118-0.037-0.204-0.126-0.27c-0.165-0.12-0.228-0.271-0.197-0.479c0.026-0.188,0.014-0.19,0.212-0.184
				c0.183,0.004,0.357,0,0.553,0c0-0.448-0.014-0.891,0.007-1.331c0.006-0.188-0.045-0.297-0.228-0.342
				c-0.182-0.045-0.242-0.156-0.229-0.345c0.012-0.128,0.049-0.166,0.172-0.146c0.209,0.034,0.393-0.005,0.566-0.149
				c0.217-0.185,0.461-0.336,0.688-0.509c0.079-0.061,0.134-0.061,0.21,0.002c0.175,0.146,0.368,0.272,0.535,0.428
				c0.205,0.191,0.422,0.311,0.711,0.243c0.094-0.021,0.146,0.021,0.137,0.123c-0.002,0.032,0.005,0.062,0.008,0.11
				c0.209,0,0.402,0,0.62,0c-0.041-0.02-0.077-0.037-0.137-0.062c0.106-0.044,0.165-0.067,0.231-0.093
				c-0.142-0.082-0.267-0.158-0.432-0.253c0.142-0.039,0.231-0.062,0.342-0.093c-0.13-0.081-0.236-0.15-0.371-0.234
				c0.116-0.026,0.196-0.043,0.303-0.064c-0.171-0.15-0.324-0.288-0.479-0.425c0.015-0.021,0.024-0.045,0.035-0.069
				c0.107-0.009,0.217-0.017,0.318-0.026c-0.095-0.157-0.188-0.322-0.297-0.518c0.102,0.024,0.157,0.035,0.229,0.054
				c-0.064-0.163-0.129-0.308-0.204-0.486c0.147,0.055,0.251,0.094,0.372,0.14c-0.025-0.144-0.054-0.264-0.074-0.384
				c-0.029-0.149,0.009-0.19,0.159-0.16c-0.011-0.059-0.025-0.112-0.023-0.168c0-0.037,0.023-0.072,0.039-0.109
				c0.038,0.019,0.089,0.024,0.115,0.055c0.046,0.048,0.072,0.108,0.115,0.174c-0.006-0.113-0.018-0.209-0.015-0.304
				c0-0.031,0.028-0.084,0.05-0.087c0.032-0.002,0.084,0.021,0.103,0.046c0.052,0.075,0.079,0.164,0.13,0.238
				c0.139,0.206,0.251,0.436,0.428,0.597c0.208,0.193,0.36,0.396,0.42,0.672c0.024,0.121,0.048,0.244,0.074,0.365
				c0.022-0.169,0.096-0.307,0.216-0.424c0.017-0.016,0.009-0.063,0.009-0.096c0-0.078-0.004-0.153-0.004-0.229
				c0.006-0.534,0.266-0.918,0.714-1.184c0.097-0.058,0.123-0.126,0.099-0.233c-0.015-0.076-0.008-0.16,0.017-0.234
				c0.037-0.128,0.096-0.248,0.146-0.372c-0.013-0.013-0.023-0.026-0.039-0.039c-3.271,0.135-5.928,1.478-7.871,4.142
				c-2.214,3.037-2.474,7.153-0.626,10.426C699.354,44.854,702.194,46.516,705.88,46.761z M699.695,33.166
				c-0.041,0.129-0.021,0.218,0.072,0.285c0.188,0.134,0.233,0.313,0.229,0.541c-0.021,0.779-0.025,1.561-0.033,2.34
				c-0.011,1.536-0.008,3.072-0.037,4.609c-0.006,0.36,0.09,0.597,0.379,0.834c1.905,1.57,3.79,3.162,5.683,4.75
				c0.062,0.055,0.102,0.054,0.168-0.002c2.006-1.641,4.017-3.273,6.024-4.909c0.07-0.056,0.102-0.11,0.102-0.202
				c0.007-1.303,0.019-2.604,0.023-3.91c0.01-1.136,0.021-2.271,0.015-3.41c-0.002-0.231,0.037-0.418,0.235-0.551
				c0.103-0.065,0.117-0.161,0.076-0.282C708.322,33.229,704.01,33.198,699.695,33.166z M708.429,33.026
				c0.02,0.003,0.03,0.01,0.046,0.01c1.104,0.004,2.205,0.008,3.312,0.017c0.104,0,0.129-0.041,0.129-0.136
				c-0.003-0.413,0.017-0.83-0.006-1.242c-0.014-0.247,0.057-0.392,0.299-0.453c0.062-0.017,0.113-0.061,0.167-0.091
				c-0.004-0.013-0.011-0.025-0.015-0.041c-0.048-0.002-0.097-0.011-0.142-0.006c-0.166,0.021-0.299-0.037-0.43-0.141
				c-0.209-0.171-0.435-0.325-0.646-0.492c-0.069-0.053-0.116-0.049-0.186,0.005c-0.188,0.151-0.392,0.286-0.576,0.443
				c-0.151,0.135-0.312,0.221-0.524,0.182c-0.028-0.006-0.062,0.009-0.097,0.014c-0.004,0.066-0.01,0.121-0.017,0.189
				c-0.356,0-0.71,0-1.102,0c0.1,0.069,0.171,0.117,0.265,0.185c-0.12,0.028-0.206,0.048-0.312,0.073
				c0.092,0.055,0.162,0.096,0.267,0.156c-0.146,0.045-0.263,0.078-0.388,0.117c0.098,0.055,0.185,0.104,0.31,0.172
				c-0.181,0.048-0.315,0.085-0.463,0.124c0.104,0.078,0.2,0.149,0.325,0.242c-0.151,0.024-0.263,0.042-0.383,0.059
				c0.076,0.059,0.143,0.106,0.234,0.18c-0.185,0.028-0.33,0.048-0.521,0.076c0.072,0.032,0.109,0.061,0.147,0.066
				c0.085,0.014,0.199-0.015,0.247,0.028C708.422,32.814,708.412,32.927,708.429,33.026z M700.429,32.985c1.168,0,2.321,0,3.481,0
				c0.002-0.013,0.007-0.031,0.009-0.049c0.013-0.222,0.013-0.219,0.237-0.229c0.055-0.003,0.104-0.03,0.158-0.045
				c-0.007-0.01-0.011-0.018-0.013-0.029c-0.145-0.021-0.291-0.046-0.475-0.073c0.102-0.075,0.165-0.123,0.233-0.175
				c-0.118-0.021-0.227-0.042-0.381-0.068c0.135-0.093,0.229-0.159,0.334-0.233c-0.153-0.045-0.289-0.082-0.459-0.131
				c0.123-0.07,0.209-0.12,0.308-0.174c-0.125-0.037-0.236-0.072-0.377-0.113c0.096-0.06,0.167-0.104,0.256-0.157
				c-0.104-0.025-0.188-0.048-0.301-0.077c0.077-0.06,0.136-0.099,0.218-0.158c-0.075-0.007-0.12-0.016-0.167-0.016
				c-0.226-0.003-0.445-0.004-0.67-0.007c-0.205,0-0.205,0-0.229-0.195c-0.002-0.005-0.013-0.015-0.025-0.034
				c-0.229,0.041-0.431-0.021-0.611-0.189c-0.199-0.188-0.428-0.343-0.646-0.511c-0.243,0.175-0.48,0.333-0.701,0.512
				c-0.153,0.122-0.312,0.195-0.51,0.167c-0.032-0.004-0.065,0.008-0.148,0.018c0.062,0.048,0.096,0.071,0.13,0.089
				c0.084,0.042,0.176,0.073,0.256,0.125c0.043,0.028,0.091,0.087,0.093,0.135c0.009,0.166-0.002,0.333-0.002,0.499
				C700.427,32.228,700.429,32.594,700.429,32.985z M707.215,30.241c0.204-0.161,0.109-0.387,0.026-0.512
				c-0.143-0.202-0.126-0.395-0.126-0.606c0.004-0.455-0.217-0.788-0.59-1.021c-0.191-0.119-0.252-0.24-0.197-0.47
				c0.008-0.039-0.006-0.089-0.022-0.13c-0.029-0.08-0.068-0.158-0.093-0.206c-0.015,0.033-0.052,0.104-0.076,0.178
				c-0.02,0.062-0.043,0.13-0.028,0.188c0.032,0.167-0.037,0.344-0.188,0.418c-0.433,0.207-0.706,0.717-0.636,1.19
				c0.021,0.145-0.022,0.262-0.104,0.385c-0.067,0.104-0.118,0.233-0.146,0.359c-0.013,0.062,0.058,0.141,0.089,0.212
				c0.082-0.006,0.156-0.013,0.235-0.022c0.007-0.064,0.011-0.124,0.017-0.2c0.107,0,0.205,0,0.297,0
				c0.026-0.288,0.026-0.288,0.23-0.353c0.006-0.058,0.013-0.115,0.019-0.182c0.154,0,0.295,0.001,0.438,0
				c0.073-0.003,0.114,0.021,0.106,0.104c-0.006,0.067,0.017,0.115,0.09,0.108c0.107-0.009,0.14,0.052,0.125,0.141
				c-0.023,0.165,0.05,0.21,0.198,0.192c0.04-0.003,0.116,0.043,0.116,0.062C706.988,30.255,707.108,30.244,707.215,30.241z
				 M706.802,30.889c0.018-0.009,0.028-0.017,0.042-0.026c0.008-0.06,0.02-0.12,0.024-0.182c0.233-0.037,0.257-0.066,0.189-0.303
				c-0.062-0.006-0.127-0.011-0.188-0.017c-0.011-0.072-0.021-0.133-0.033-0.191c-0.011,0-0.021,0-0.036,0
				c-0.007,0.055-0.007,0.11-0.021,0.158c-0.03,0.081-0.446,0.057-0.455-0.025c-0.014-0.1,0-0.199-0.008-0.299
				c-0.013-0.181,0.175-0.057,0.229-0.153c-0.028-0.01-0.05-0.024-0.069-0.021c-0.104,0.011-0.172-0.018-0.164-0.146
				c0.004-0.019-0.041-0.058-0.066-0.064c-0.139-0.032-0.178,0.005-0.216,0.199c-0.062,0.006-0.121,0.016-0.185,0.023
				c0,0.014,0,0.026,0,0.04c0.062,0.011,0.121,0.019,0.201,0.03c0,0.063,0,0.129,0,0.193c-0.002,0.323,0.02,0.257-0.269,0.263
				c-0.128,0.005-0.231-0.005-0.206-0.175c0.002-0.016-0.021-0.03-0.037-0.053c-0.017,0.019-0.025,0.023-0.025,0.03
				c0,0.112,0.002,0.222-0.166,0.208c-0.014-0.002-0.051,0.107-0.049,0.165c0,0.034,0.053,0.096,0.082,0.096
				c0.102,0.001,0.135,0.045,0.126,0.141c-0.002,0.027,0.013,0.058,0.021,0.086c0.015,0,0.025,0.001,0.036,0.001
				c0.02-0.062,0.032-0.124,0.048-0.189c0.146,0,0.283,0,0.438,0c0,0.067,0,0.123,0,0.179c-0.006,0.576-0.008,1.149-0.016,1.726
				c-0.003,0.109,0.029,0.146,0.146,0.147c0.141,0,0.137-0.083,0.137-0.179c0-0.568,0.002-1.14,0.002-1.709c0-0.057,0-0.109,0-0.19
				C706.504,30.725,706.768,30.517,706.802,30.889z M705.887,32.031c0-0.408,0-0.815,0-1.231c-0.059,0.003-0.103,0.004-0.146,0.007
				c-0.007,0.069-0.016,0.125-0.021,0.192c-0.053,0.004-0.104,0.011-0.151,0.014c-0.115,0.008-0.229,0.013-0.217-0.158
				c0-0.018-0.062-0.059-0.09-0.055c-0.037,0.007-0.089,0.046-0.093,0.079c-0.014,0.101,0,0.206-0.009,0.312
				c-0.028,0.248,0.087,0.416,0.288,0.544C705.592,31.826,705.729,31.926,705.887,32.031z M706.459,32.028
				c0.156-0.101,0.312-0.205,0.471-0.306c0.185-0.117,0.278-0.28,0.271-0.501c-0.004-0.093-0.018-0.188-0.013-0.283
				c0.009-0.139-0.055-0.165-0.17-0.124c-0.041,0.217-0.041,0.217-0.262,0.209c-0.004,0-0.008-0.003-0.016,0
				c-0.07,0.004-0.112-0.021-0.116-0.104c-0.003-0.035-0.05-0.07-0.078-0.103c-0.028,0.037-0.082,0.076-0.082,0.114
				C706.457,31.298,706.459,31.664,706.459,32.028z M705.752,32.111c-0.125-0.087-0.229-0.166-0.344-0.229
				c-0.318-0.177-0.427-0.447-0.396-0.801c0.022-0.219,0.021-0.438,0.017-0.655c-0.006-0.194-0.158-0.394-0.32-0.438
				c-0.029,0.146,0.093,0.206,0.168,0.289c0.07,0.075,0.09,0.141-0.006,0.215c-0.146-0.092-0.264-0.239-0.489-0.141
				c0.069,0.027,0.11,0.045,0.153,0.06c0.213,0.081,0.352,0.232,0.387,0.455c0.015,0.107,0.004,0.229-0.021,0.337
				c-0.104,0.388,0.082,0.645,0.36,0.87C705.403,32.186,705.553,32.216,705.752,32.111z M707.473,30.502
				c-0.016-0.01-0.029-0.017-0.049-0.024c0.02-0.057,0.021-0.119,0.051-0.164c0.039-0.062,0.109-0.109,0.151-0.169
				c0.026-0.034,0.03-0.087,0.044-0.133c-0.016-0.004-0.031-0.011-0.045-0.015c-0.177,0.117-0.293,0.275-0.295,0.498
				c-0.002,0.271-0.002,0.541,0.002,0.813c0,0.163-0.054,0.301-0.174,0.404c-0.105,0.093-0.229,0.169-0.346,0.251
				c-0.072,0.051-0.146,0.098-0.218,0.147c0.009,0.02,0.013,0.04,0.019,0.057c0.104,0,0.219,0.03,0.31-0.005
				c0.372-0.139,0.589-0.52,0.534-0.909c-0.004-0.032-0.01-0.063-0.017-0.1c-0.069-0.323,0.07-0.593,0.384-0.718
				c0.045-0.02,0.087-0.038,0.149-0.067C707.754,30.274,707.626,30.437,707.473,30.502z M703.219,29.892
				c0.229,0.387,0.641,0.344,1.031,0.47c-0.032-0.079-0.037-0.137-0.069-0.158C703.891,30.015,703.582,29.878,703.219,29.892z
				 M708.133,30.378c0.185-0.041,0.33-0.096,0.484-0.104c0.238-0.013,0.373-0.171,0.552-0.327c-0.405-0.043-0.712,0.11-1.009,0.301
				C708.14,30.263,708.144,30.321,708.133,30.378z M704.56,29.912c0.014-0.004,0.024-0.01,0.037-0.015
				c-0.052-0.308-0.146-0.589-0.42-0.792c-0.169-0.123-0.308-0.288-0.457-0.438c-0.034-0.034-0.059-0.08-0.089-0.121
				c-0.011,0.079-0.015,0.162,0.024,0.209c0.134,0.151,0.267,0.312,0.433,0.422c0.238,0.151,0.379,0.348,0.441,0.614
				C704.537,29.833,704.549,29.871,704.56,29.912z M708.785,28.609c-0.014-0.011-0.029-0.019-0.042-0.027
				c-0.153,0.29-0.409,0.463-0.655,0.653c-0.213,0.165-0.276,0.42-0.293,0.682c0.033-0.053,0.046-0.11,0.062-0.166
				c0.063-0.224,0.191-0.388,0.393-0.521c0.168-0.114,0.314-0.266,0.459-0.413C708.756,28.768,708.76,28.68,708.785,28.609z
				 M708.205,29.788c0.176-0.103,0.385-0.254,0.615-0.347c0.174-0.071,0.242-0.185,0.3-0.345
				C708.691,29.213,708.41,29.494,708.205,29.788z M704.205,29.833c-0.232-0.351-0.502-0.654-0.943-0.751
				c0.056,0.103,0.107,0.233,0.199,0.268C703.746,29.46,703.995,29.61,704.205,29.833z M704.09,29.956
				c-0.146-0.233-0.529-0.462-0.853-0.48c0.1,0.106,0.167,0.225,0.269,0.275C703.691,29.841,703.899,29.892,704.09,29.956z
				 M708.247,30.006c0.181-0.066,0.331-0.149,0.491-0.176c0.199-0.031,0.274-0.168,0.375-0.326
				C708.756,29.566,708.48,29.729,708.247,30.006z M704.599,29.305c-0.064-0.085-0.137-0.216-0.24-0.299
				c-0.195-0.15-0.339-0.338-0.454-0.552c-0.014-0.02-0.03-0.037-0.055-0.062c-0.043,0.259,0.131,0.385,0.279,0.52
				C704.287,29.049,704.453,29.182,704.599,29.305z M707.756,29.342c0.168-0.14,0.32-0.257,0.466-0.383
				c0.087-0.075,0.182-0.146,0.241-0.239c0.055-0.076,0.068-0.179,0.104-0.281C708.288,28.749,708.031,29.037,707.756,29.342z
				 M704.201,30.759c-0.215-0.115-0.438-0.133-0.684-0.061C703.744,30.852,703.973,30.798,704.201,30.759z M708.156,30.787
				c0.228,0.037,0.454,0.104,0.68-0.056C708.59,30.662,708.369,30.674,708.156,30.787z M705.758,32.334
				c-0.131,0.146-0.246,0.273-0.361,0.398c0.14-0.066,0.277-0.141,0.396-0.244c0.046-0.042,0.039-0.149,0.043-0.228
				c0-0.016-0.061-0.034-0.091-0.052c-0.006,0.014-0.013,0.024-0.021,0.036C705.737,32.278,705.75,32.312,705.758,32.334z
				 M706.627,32.213c-0.057,0.011-0.113,0.014-0.115,0.027c-0.014,0.065-0.041,0.148-0.014,0.198
				c0.092,0.158,0.246,0.242,0.404,0.285c-0.104-0.123-0.209-0.25-0.326-0.39C706.583,32.319,706.598,32.285,706.627,32.213z
				 M703.856,31.317c0.007,0.021,0.015,0.043,0.021,0.065c0.191-0.012,0.401,0.03,0.504-0.24
				C704.207,31.201,704.031,31.259,703.856,31.317z M707.973,31.17c0.086,0.214,0.304,0.286,0.527,0.184
				C708.325,31.291,708.146,31.23,707.973,31.17z M708.182,30.509c0.006,0.018,0.013,0.035,0.014,0.056
				c0.191,0.032,0.531-0.038,0.64-0.169C708.615,30.433,708.398,30.471,708.182,30.509z M704.94,32.845
				c-0.165,0.044-0.354-0.084-0.438,0.147C704.809,33.04,704.85,33.029,704.94,32.845z M705.053,32.996
				c0.324,0.041,0.352,0.036,0.409-0.127C705.164,32.821,705.122,32.834,705.053,32.996z M703.536,30.385
				c-0.002,0.024-0.004,0.045-0.007,0.069c0.211,0.034,0.422,0.068,0.635,0.104c0.002-0.019,0.006-0.039,0.008-0.059
				C703.967,30.433,703.761,30.352,703.536,30.385z M708.081,30.954c0.034,0.162,0.276,0.184,0.57,0.062
				C708.441,30.992,708.271,30.973,708.081,30.954z M703.748,30.976c0,0.021,0.002,0.044,0.004,0.067
				c0.147,0,0.295,0.001,0.444-0.003c0.019-0.002,0.041-0.037,0.06-0.056c-0.021-0.016-0.049-0.041-0.075-0.041
				C704.036,30.949,703.891,30.962,703.748,30.976z M705.994,32.886c-0.305-0.071-0.354-0.055-0.397,0.133
				C705.729,32.967,705.904,33.101,705.994,32.886z M704.389,31.523c-0.105-0.058-0.313-0.014-0.445,0.089
				C704.148,31.676,704.303,31.65,704.389,31.523z M707.94,31.53c0.104,0.146,0.247,0.176,0.479,0.104
				C708.264,31.558,708.126,31.499,707.94,31.53z M706.752,33.022c-0.09-0.167-0.244-0.196-0.438-0.119
				C706.416,33.096,706.587,32.978,706.752,33.022z M706.868,32.869c0.058,0.164,0.226,0.208,0.407,0.112
				C707.179,32.793,707.008,32.917,706.868,32.869z M707.414,32.896c0.055,0.138,0.146,0.164,0.387,0.105
				C707.754,32.864,707.688,32.845,707.414,32.896z M708.215,32.282c0.004-0.011,0.007-0.023,0.008-0.034
				c-0.224-0.18-0.303-0.196-0.479-0.083C707.911,32.207,708.064,32.245,708.215,32.282z M704.119,32.202
				c0.004,0.018,0.01,0.035,0.014,0.053c0.152-0.038,0.309-0.075,0.47-0.114C704.395,31.976,704.266,32.134,704.119,32.202z
				 M704.387,32.862c-0.104,0-0.206,0-0.312,0c0.005,0.055,0.007,0.098,0.012,0.141C704.215,33.008,704.346,33.044,704.387,32.862z
				 M707.947,32.889c0.042,0.195,0.176,0.144,0.3,0.144c0-0.054,0-0.096,0-0.144C708.144,32.889,708.048,32.889,707.947,32.889z
				 M708.312,31.956c0-0.016,0-0.03,0.002-0.045c-0.142-0.07-0.277-0.164-0.449,0.023C708.031,31.942,708.172,31.949,708.312,31.956
				z M704.476,31.904c-0.181-0.176-0.312-0.092-0.49,0C704.162,31.904,704.303,31.904,704.476,31.904z M708.055,32.522
				c0.013-0.018,0.019-0.034,0.021-0.055c-0.128-0.082-0.268-0.147-0.417-0.145c-0.007,0.02-0.013,0.041-0.021,0.062
				C707.777,32.433,707.916,32.478,708.055,32.522z M704.239,32.456c0.185,0.032,0.325,0,0.457-0.146
				C704.515,32.298,704.385,32.364,704.239,32.456z M707.992,29.817c0.141-0.169,0.271-0.327,0.404-0.488
				C708.176,29.419,708.048,29.582,707.992,29.817z M704.38,29.799c-0.061-0.229-0.157-0.395-0.388-0.49
				C704.127,29.478,704.244,29.627,704.38,29.799z M707.131,32.604c-0.057-0.161-0.146-0.229-0.287-0.218
				C706.873,32.549,706.99,32.586,707.131,32.604z M705.184,32.538c0.203,0.041,0.295-0.033,0.281-0.218
				C705.36,32.401,705.271,32.468,705.184,32.538z M704.75,31.642c-0.009-0.021-0.018-0.043-0.025-0.065
				c-0.114-0.029-0.206,0-0.256,0.115c0.007,0.018,0.017,0.032,0.021,0.05C704.574,31.709,704.661,31.675,704.75,31.642z
				 M707.643,31.571c-0.01,0.017-0.017,0.034-0.021,0.049c0.059,0.13,0.135,0.158,0.299,0.069
				C707.807,31.642,707.725,31.606,707.643,31.571z M707.589,31.02c0.003,0.015,0.003,0.03,0.003,0.045
				c0.104,0.049,0.209,0.056,0.352-0.045C707.801,31.02,707.695,31.02,707.589,31.02z M704.865,31.891
				c-0.01-0.017-0.019-0.031-0.024-0.05c-0.159-0.025-0.2-0.004-0.232,0.163C704.705,31.96,704.783,31.926,704.865,31.891z
				 M703.486,28.783c-0.023,0.202,0.104,0.265,0.248,0.32C703.652,28.997,703.573,28.896,703.486,28.783z M707.656,31.371
				c0.003,0.02,0.003,0.042,0.004,0.06c0.068-0.007,0.141-0.014,0.21-0.021c-0.008-0.026-0.008-0.064-0.025-0.079
				C707.767,31.266,707.705,31.305,707.656,31.371z M708.902,28.813c-0.093,0.113-0.172,0.217-0.262,0.323
				C708.795,29.082,708.912,29.011,708.902,28.813z M707.553,32.228c-0.041-0.155-0.098-0.175-0.256-0.094
				C707.398,32.17,707.475,32.2,707.553,32.228z M704.986,32.374c0.021,0.017,0.045,0.038,0.063,0.056
				c0.058-0.065,0.108-0.132,0.162-0.196c-0.02-0.018-0.038-0.033-0.059-0.051C705.102,32.248,705.042,32.311,704.986,32.374z
				 M705.891,30.058c-0.172-0.02-0.184-0.006-0.139,0.146C705.88,30.24,705.919,30.186,705.891,30.058z M706.521,30.029
				c-0.024,0.022-0.049,0.044-0.071,0.063c0.031,0.043,0.062,0.086,0.093,0.129c0.032-0.029,0.065-0.06,0.097-0.088
				C706.6,30.1,706.559,30.063,706.521,30.029z M704.443,31.419c0.092-0.015,0.164-0.028,0.231-0.042
				c-0.017-0.027-0.022-0.072-0.049-0.082C704.549,31.261,704.486,31.287,704.443,31.419z M704.451,31.003c0,0.017,0,0.031,0,0.047
				c0.102,0,0.204,0,0.306,0c0-0.016,0-0.03,0-0.047C704.655,31.003,704.553,31.003,704.451,31.003z M707.715,32.004
				c0.007-0.014,0.011-0.028,0.021-0.041c-0.073-0.12-0.11-0.133-0.244-0.046C707.562,31.945,707.639,31.976,707.715,32.004z
				 M704.768,32.155c0.007,0.015,0.014,0.031,0.019,0.047c0.077-0.023,0.147-0.05,0.227-0.075c-0.004-0.018-0.011-0.034-0.018-0.052
				C704.906,32.07,704.812,32.046,704.768,32.155z M707.207,32.213c-0.016,0.011-0.033,0.021-0.051,0.031
				c-0.014,0.104,0.059,0.148,0.143,0.183c0.016-0.008,0.029-0.019,0.043-0.029C707.297,32.337,707.252,32.274,707.207,32.213z
				 M704.417,30.767c-0.002,0.018-0.002,0.036-0.005,0.054c0.092,0,0.18,0,0.27,0c0.002-0.014,0.002-0.024,0.004-0.037
				C704.594,30.779,704.506,30.772,704.417,30.767z"/>
			<path fill="#1F2327" d="M701.509,26.329c0.02-0.523,0.401-0.947,0.933-1.027c0.418-0.065,0.787,0.015,1.059,0.363
				c0.316,0.406,0.253,0.943-0.138,1.322c-0.453,0.438-1.25,0.432-1.624-0.015C701.584,26.792,701.502,26.559,701.509,26.329z
				 M703.205,26.596c-0.011-0.425-0.174-0.775-0.516-1.031c-0.146-0.107-0.312-0.138-0.479-0.045
				c-0.156,0.087-0.22,0.236-0.218,0.407c0,0.112,0.006,0.229,0.031,0.337c0.086,0.333,0.243,0.621,0.562,0.788
				c0.301,0.158,0.604-0.02,0.619-0.356C703.207,26.66,703.205,26.627,703.205,26.596z"/>
			<path fill="#1F2327" d="M717.057,34.923c0.289-0.082,0.543-0.151,0.797-0.226c0.104-0.028,0.112-0.11,0.109-0.203
				c-0.001-0.044,0.029-0.089,0.045-0.132c0.037,0.036,0.091,0.066,0.105,0.11c0.051,0.165,0.092,0.329,0.126,0.498
				c0.008,0.034-0.022,0.079-0.033,0.12c-0.034-0.023-0.091-0.038-0.103-0.068c-0.044-0.137-0.117-0.155-0.25-0.121
				c-0.464,0.125-0.927,0.241-1.39,0.358c-0.072,0.018-0.174,0.092-0.213-0.018c-0.021-0.06,0.016-0.164,0.06-0.224
				c0.328-0.449,0.661-0.892,0.994-1.338c0.03-0.041,0.062-0.085,0.11-0.156c-0.398,0.108-0.762,0.204-1.125,0.305
				c-0.104,0.029-0.125,0.11-0.121,0.215c0.004,0.048-0.037,0.1-0.056,0.147c-0.036-0.044-0.081-0.085-0.102-0.134
				c-0.049-0.152-0.092-0.308-0.124-0.466c-0.009-0.044,0.024-0.099,0.041-0.145c0.034,0.03,0.087,0.053,0.104,0.09
				c0.037,0.089,0.099,0.117,0.181,0.103c0.129-0.023,0.259-0.055,0.389-0.086c0.284-0.072,0.567-0.146,0.854-0.22
				c0.109-0.027,0.185-0.074,0.16-0.205c-0.004-0.033,0.025-0.071,0.045-0.109c0.029,0.029,0.08,0.051,0.092,0.083
				c0.057,0.19,0.111,0.383,0.146,0.578c0.014,0.052-0.025,0.125-0.062,0.175c-0.236,0.329-0.479,0.651-0.718,0.976
				C717.105,34.851,717.092,34.871,717.057,34.923z"/>
			<path fill="#1F2327" d="M711.284,27.813c0.22,0.003,0.337-0.073,0.409-0.21c0.158-0.315,0.312-0.637,0.473-0.956
				c0.053-0.106,0.011-0.176-0.078-0.243c-0.034-0.025-0.049-0.082-0.072-0.123c0.054-0.002,0.107-0.021,0.15-0.002
				c0.146,0.062,0.293,0.137,0.434,0.214c0.037,0.02,0.054,0.074,0.078,0.113c-0.041,0.01-0.087,0.034-0.124,0.026
				c-0.111-0.033-0.179,0.015-0.227,0.111c-0.137,0.277-0.271,0.555-0.41,0.829c-0.187,0.374-0.435,0.484-0.828,0.34
				c-0.188-0.069-0.37-0.175-0.53-0.296c-0.255-0.195-0.299-0.446-0.153-0.75c0.131-0.274,0.262-0.546,0.399-0.814
				c0.062-0.125,0.078-0.222-0.055-0.308c-0.023-0.018-0.023-0.072-0.037-0.109c0.037-0.006,0.084-0.027,0.112-0.015
				c0.265,0.127,0.528,0.258,0.792,0.392c0.022,0.014,0.034,0.065,0.052,0.1c-0.033,0.011-0.074,0.041-0.099,0.03
				c-0.185-0.072-0.241,0.042-0.307,0.179c-0.123,0.265-0.264,0.525-0.386,0.793C710.709,27.494,710.926,27.816,711.284,27.813z"/>
			<path fill="#1F2327" d="M698.781,28.164c-0.023-0.228-0.035-0.433-0.068-0.636c-0.018-0.096-0.098-0.076-0.172-0.044
				c-0.045,0.02-0.1,0.02-0.151,0.028c0.026-0.052,0.04-0.121,0.077-0.155c0.135-0.114,0.275-0.224,0.418-0.323
				c0.042-0.026,0.109-0.017,0.163-0.023c-0.015,0.044-0.032,0.086-0.048,0.133c-0.025,0.077-0.071,0.158-0.073,0.237
				c-0.002,0.223,0.021,0.446,0.02,0.669c-0.002,0.318,0.249,0.486,0.414,0.703c0.021,0.032,0.125,0,0.188,0
				c0.047,0.003,0.097,0.011,0.142,0.015c-0.02,0.04-0.023,0.094-0.054,0.115c-0.219,0.175-0.438,0.348-0.667,0.515
				c-0.027,0.021-0.083,0.018-0.126,0.024c0.008-0.046-0.008-0.106,0.019-0.134c0.1-0.11,0.057-0.193-0.017-0.302
				c-0.147-0.244-0.352-0.394-0.636-0.452c-0.184-0.039-0.355-0.121-0.542-0.162c-0.092-0.021-0.188,0.003-0.287,0.003
				c-0.031,0-0.065-0.007-0.102-0.013c0.007-0.035,0.002-0.09,0.023-0.109c0.242-0.195,0.491-0.388,0.743-0.573
				c0.025-0.021,0.075-0.003,0.114-0.003c-0.011,0.041-0.007,0.096-0.03,0.119c-0.105,0.093-0.062,0.139,0.045,0.174
				C698.371,28.029,698.562,28.094,698.781,28.164z"/>
			<path fill="#1F2327" d="M704.641,25.19c0.011,0.085,0.018,0.171,0.031,0.253c0.012,0.068-0.037,0.174,0.089,0.174
				c0.128-0.002,0.275,0.025,0.354-0.126c0.009-0.015,0.009-0.038,0.02-0.052c0.035-0.044,0.076-0.085,0.113-0.126
				c0.021,0.048,0.061,0.092,0.063,0.141c0.023,0.141,0.037,0.284,0.044,0.425c0.004,0.045-0.025,0.093-0.046,0.138
				c-0.044-0.025-0.104-0.041-0.132-0.076c-0.109-0.165-0.171-0.195-0.353-0.164c-0.087,0.017-0.135,0.055-0.119,0.154
				c0.021,0.145,0.038,0.292,0.05,0.439c0.009,0.1,0.047,0.151,0.153,0.168c0.047,0.007,0.091,0.059,0.137,0.092
				c-0.046,0.026-0.09,0.069-0.137,0.076c-0.271,0.027-0.539,0.05-0.812,0.067c-0.038,0.004-0.077-0.03-0.115-0.047
				c0.026-0.035,0.056-0.093,0.092-0.104c0.143-0.041,0.16-0.123,0.143-0.26c-0.043-0.356-0.07-0.718-0.1-1.077
				c-0.018-0.219-0.02-0.226-0.232-0.284c-0.025-0.008-0.051-0.045-0.076-0.066c0.025-0.023,0.053-0.062,0.078-0.067
				c0.151-0.021,0.301-0.032,0.452-0.048c0.29-0.028,0.577-0.056,0.866-0.087c0.211-0.023,0.232-0.006,0.242,0.216
				c0.002,0.019,0.004,0.038,0.002,0.058c-0.012,0.065-0.021,0.131-0.033,0.197c-0.062-0.042-0.136-0.073-0.184-0.125
				c-0.112-0.126-0.416-0.195-0.552-0.095c-0.045,0.033-0.039,0.133-0.057,0.199C704.629,25.187,704.633,25.188,704.641,25.19z"/>
			<path fill="#1F2327" d="M708.123,26.74c-0.223-0.049-0.422-0.091-0.617-0.138c-0.028-0.01-0.051-0.051-0.072-0.076
				c0.027-0.026,0.062-0.075,0.092-0.074c0.148,0.018,0.214-0.089,0.281-0.192c0.289-0.425,0.58-0.848,0.875-1.266
				c0.041-0.055,0.127-0.106,0.191-0.11c0.104-0.004,0.121,0.1,0.139,0.184c0.098,0.521,0.191,1.045,0.291,1.565
				c0.021,0.107,0.044,0.216,0.184,0.247c0.021,0.004,0.052,0.068,0.042,0.086c-0.02,0.027-0.064,0.062-0.095,0.056
				c-0.276-0.055-0.557-0.114-0.834-0.182c-0.027-0.007-0.049-0.056-0.072-0.087c0.029-0.02,0.064-0.058,0.097-0.054
				c0.122,0.016,0.141-0.043,0.123-0.143c-0.013-0.085-0.01-0.174-0.041-0.252c-0.021-0.052-0.07-0.107-0.123-0.125
				c-0.111-0.039-0.229-0.063-0.347-0.075c-0.049-0.005-0.11,0.025-0.151,0.059c-0.034,0.025-0.049,0.079-0.068,0.12
				c-0.086,0.172-0.078,0.195,0.101,0.277c0.012,0.007,0.026,0.011,0.036,0.021c0.021,0.033,0.062,0.074,0.052,0.1
				C708.192,26.71,708.141,26.727,708.123,26.74z M708.565,25.431c-0.12,0.181-0.219,0.325-0.322,0.486
				c0.145,0.035,0.271,0.064,0.415,0.099C708.627,25.82,708.6,25.646,708.565,25.431z"/>
			<path fill="#1F2327" d="M696.706,29.4c0.253,0.192,0.509,0.388,0.765,0.581c0.114,0.088,0.229,0.171,0.342,0.26
				c0.089,0.069,0.164,0.074,0.256-0.004c0.029-0.027,0.095-0.021,0.145-0.03c-0.009,0.048-0.004,0.104-0.028,0.138
				c-0.159,0.224-0.325,0.442-0.5,0.658c-0.021,0.031-0.072,0.037-0.111,0.055c-0.011-0.045-0.032-0.097-0.021-0.134
				c0.042-0.1,0.046-0.178-0.052-0.251c-0.361-0.271-0.721-0.545-1.08-0.818c-0.012-0.011-0.032-0.015-0.052-0.024
				c-0.146,0.13-0.149,0.284-0.102,0.457c0.021,0.067-0.002,0.146-0.005,0.222c-0.061-0.042-0.132-0.075-0.183-0.128
				c-0.068-0.07-0.125-0.154-0.182-0.236c-0.066-0.098-0.045-0.141,0.065-0.164c0.045-0.01,0.098-0.037,0.123-0.072
				c0.224-0.285,0.443-0.571,0.653-0.864c0.043-0.059,0.041-0.147,0.061-0.222c0.009-0.035,0.016-0.084,0.036-0.098
				c0.021-0.013,0.074,0.005,0.099,0.025c0.11,0.099,0.221,0.198,0.319,0.302c0.026,0.026,0.05,0.085,0.037,0.109
				c-0.014,0.027-0.068,0.037-0.104,0.044c-0.032,0.004-0.067-0.007-0.102-0.013C696.884,29.146,696.802,29.188,696.706,29.4z"/>
			<path fill="#1F2327" d="M715.459,29.235c-0.092-0.187-0.234-0.231-0.408-0.238c-0.076-0.001-0.146-0.045-0.225-0.069
				c0.061-0.045,0.117-0.102,0.182-0.134c0.088-0.045,0.187-0.078,0.279-0.108c0.113-0.036,0.146-0.002,0.137,0.111
				c-0.007,0.041,0.002,0.094,0.025,0.127c0.219,0.306,0.438,0.608,0.671,0.906c0.038,0.048,0.117,0.062,0.175,0.096
				c0.031,0.018,0.076,0.034,0.08,0.062c0.007,0.024-0.019,0.072-0.045,0.09c-0.127,0.081-0.26,0.158-0.395,0.229
				c-0.027,0.015-0.095,0.009-0.109-0.014c-0.021-0.023-0.021-0.076-0.004-0.114c0.021-0.061,0.062-0.116,0.088-0.178
				c0.036-0.089-0.016-0.261-0.096-0.302c-0.025-0.011-0.074-0.003-0.104,0.015c-0.363,0.268-0.725,0.537-1.09,0.805
				c-0.09,0.065-0.07,0.139-0.039,0.228c0.015,0.041-0.003,0.093-0.004,0.141c-0.047-0.024-0.106-0.035-0.136-0.069
				c-0.161-0.21-0.322-0.425-0.478-0.641c-0.023-0.039-0.021-0.1-0.03-0.146c0.052,0.01,0.104,0.021,0.15,0.031
				c0.062,0.014,0.15,0.062,0.188,0.037C714.673,29.817,715.061,29.527,715.459,29.235z"/>
			<path fill="#1F2327" d="M713.13,29.097c-0.332,0.003-0.796-0.326-0.895-0.639c-0.016-0.042-0.011-0.107,0.017-0.146
				c0.055-0.087,0.124-0.166,0.195-0.242c0.021-0.026,0.096-0.046,0.104-0.033c0.028,0.028,0.046,0.081,0.041,0.12
				c-0.007,0.052-0.033,0.099-0.058,0.145c-0.068,0.143-0.041,0.271,0.055,0.385c0.111,0.128,0.247,0.211,0.427,0.182
				c0.153-0.022,0.245-0.194,0.189-0.364c-0.029-0.086-0.077-0.164-0.116-0.244c-0.047-0.099-0.102-0.191-0.137-0.294
				c-0.164-0.434,0.127-0.79,0.583-0.717c0.298,0.047,0.521,0.206,0.695,0.452c0.06,0.088,0.062,0.161-0.015,0.24
				c-0.054,0.055-0.093,0.122-0.146,0.174c-0.024,0.024-0.083,0.042-0.106,0.028c-0.023-0.015-0.039-0.069-0.037-0.106
				c0.003-0.049,0.027-0.1,0.04-0.151c0.048-0.208-0.034-0.359-0.245-0.4c-0.073-0.015-0.191,0.01-0.235,0.062
				c-0.045,0.054-0.054,0.172-0.023,0.244c0.045,0.123,0.131,0.229,0.196,0.346c0.081,0.145,0.144,0.302,0.104,0.474
				C713.703,28.9,713.449,29.095,713.13,29.097z"/>
			<path fill="#1F2327" d="M694.424,33.588c0.004-0.356,0.103-0.645,0.264-0.915c0.066-0.11,0.144-0.172,0.274-0.123
				c0.05,0.018,0.104,0.018,0.153,0.036c0.025,0.008,0.065,0.039,0.065,0.06c-0.004,0.031-0.021,0.074-0.053,0.089
				c-0.041,0.028-0.096,0.039-0.145,0.055c-0.287,0.089-0.431,0.348-0.341,0.636c0.117,0.379,0.425,0.528,0.774,0.61
				c0.212,0.048,0.415,0.03,0.604-0.087c0.273-0.171,0.343-0.483,0.151-0.748c-0.026-0.039-0.064-0.07-0.087-0.11
				c-0.021-0.047-0.03-0.102-0.043-0.152c0.048-0.001,0.104-0.019,0.146-0.004c0.234,0.08,0.306,0.171,0.279,0.419
				c-0.036,0.414-0.188,0.78-0.522,1.039c-0.286,0.222-0.612,0.271-0.953,0.122c-0.33-0.147-0.509-0.414-0.562-0.768
				C694.43,33.681,694.426,33.613,694.424,33.588z"/>
			<path fill="#1F2327" d="M716.803,31.312c-0.018-0.077-0.035-0.118-0.035-0.159c0.002-0.028,0.021-0.069,0.043-0.078
				c0.021-0.007,0.062,0.013,0.084,0.03c0.021,0.013,0.024,0.038,0.035,0.061c0.11,0.242,0.228,0.482,0.329,0.725
				c0.021,0.041,0,0.1-0.005,0.151c-0.04-0.021-0.098-0.031-0.121-0.066c-0.065-0.096-0.145-0.111-0.247-0.063
				c-0.37,0.174-0.739,0.347-1.109,0.514c-0.104,0.045-0.12,0.116-0.109,0.219c0.001,0.046-0.023,0.1-0.037,0.148
				c-0.041-0.038-0.1-0.066-0.121-0.114c-0.117-0.238-0.229-0.48-0.334-0.723c-0.018-0.037,0.006-0.092,0.015-0.137
				c0.041,0.016,0.097,0.021,0.114,0.051c0.082,0.123,0.172,0.111,0.291,0.056c0.354-0.168,0.707-0.325,1.062-0.491
				C716.711,31.406,716.759,31.349,716.803,31.312z"/>
			<path fill="#1F2327" d="M696.654,32.562c0.112-0.194-0.021-0.257-0.146-0.328c-0.323-0.182-0.643-0.363-0.963-0.552
				c-0.104-0.06-0.188-0.07-0.271,0.033c-0.025,0.03-0.087,0.03-0.135,0.045c0.007-0.048-0.007-0.104,0.019-0.141
				c0.13-0.237,0.262-0.473,0.399-0.703c0.021-0.037,0.075-0.055,0.114-0.08c0.014,0.048,0.039,0.102,0.026,0.136
				c-0.048,0.122,0,0.188,0.1,0.243c0.354,0.198,0.703,0.397,1.05,0.601c0.101,0.059,0.17,0.058,0.248-0.032
				c0.031-0.034,0.099-0.037,0.146-0.054c-0.002,0.048,0.01,0.104-0.011,0.141c-0.135,0.24-0.271,0.48-0.409,0.715
				c-0.021,0.034-0.068,0.059-0.107,0.063C696.697,32.652,696.674,32.592,696.654,32.562z"/>
			<path fill="#1F2327" d="M694.878,38.736c-0.256-0.003-0.464-0.206-0.464-0.457c0-0.253,0.221-0.472,0.475-0.47
				c0.25,0.002,0.456,0.213,0.456,0.465C695.345,38.548,695.152,38.736,694.878,38.736z"/>
			<path fill="#1F2327" d="M717.847,38.433c0.003,0.253-0.206,0.468-0.456,0.472c-0.252,0.004-0.463-0.203-0.471-0.459
				c-0.004-0.259,0.191-0.467,0.449-0.471C717.641,37.969,717.846,38.164,717.847,38.433z"/>
			<path fill="#1F2327" d="M703.919,48.675c0.19-0.02,0.2-0.138,0.221-0.249c0.022-0.115,0.034-0.232,0.063-0.348
				c0.021-0.1,0.034-0.186-0.094-0.247c0.039-0.013,0.08-0.037,0.114-0.034c0.17,0.016,0.345,0.021,0.507,0.062
				c0.28,0.066,0.461,0.312,0.42,0.545c-0.052,0.267-0.308,0.457-0.604,0.429c-0.178-0.021-0.354-0.062-0.528-0.097
				C703.997,48.736,703.98,48.717,703.919,48.675z M704.858,48.284c0-0.175-0.083-0.304-0.219-0.347
				c-0.073-0.023-0.126-0.016-0.141,0.082c-0.031,0.182-0.068,0.358-0.103,0.543c-0.025,0.14,0.05,0.203,0.187,0.162
				C704.748,48.673,704.858,48.496,704.858,48.284z"/>
			<path fill="#1F2327" d="M707.338,48.736c0.123-0.062,0.122-0.151,0.093-0.264c-0.029-0.117-0.042-0.24-0.062-0.363
				c-0.021-0.1-0.027-0.198-0.189-0.176c0.028-0.041,0.037-0.074,0.062-0.082c0.247-0.106,0.5-0.188,0.771-0.123
				c0.204,0.049,0.331,0.182,0.359,0.393c0.025,0.193-0.062,0.341-0.207,0.457c-0.169,0.135-0.38,0.141-0.578,0.176
				c-0.075,0.012-0.151,0.02-0.225,0.027C707.352,48.766,707.345,48.754,707.338,48.736z M708.082,48.268
				c0-0.031,0.003-0.06,0-0.088c-0.021-0.187-0.158-0.353-0.305-0.363c-0.072-0.006-0.179-0.016-0.158,0.104
				c0.024,0.205,0.066,0.408,0.113,0.612c0.018,0.089,0.075,0.107,0.159,0.07C708.035,48.532,708.082,48.414,708.082,48.268z"/>
			<path fill="#1F2327" d="M699.347,46.333c0.002-0.282,0.221-0.49,0.516-0.49c0.303-0.003,0.594,0.288,0.586,0.579
				c-0.011,0.27-0.236,0.479-0.521,0.477C699.623,46.895,699.347,46.625,699.347,46.333z M699.594,46.464
				c0,0.24,0.123,0.349,0.271,0.287c0.188-0.075,0.368-0.383,0.338-0.582c-0.025-0.171-0.187-0.248-0.328-0.151
				C699.699,46.133,699.605,46.302,699.594,46.464z"/>
			<path fill="#1F2327" d="M702.473,47.37c0.211-0.054,0.414,0.035,0.485,0.188c0.073,0.151,0.147,0.306,0.233,0.457
				c0.012-0.162,0.209-0.324-0.031-0.48c0.008-0.012,0.018-0.025,0.024-0.038c0.123,0.026,0.245,0.058,0.367,0.082
				c0.008,0.019,0.015,0.032,0.019,0.048c-0.188,0.002-0.19,0.134-0.222,0.255c-0.039,0.183-0.084,0.359-0.131,0.54
				c-0.012,0.035-0.041,0.066-0.062,0.1c-0.032-0.026-0.077-0.054-0.101-0.088c-0.104-0.217-0.208-0.437-0.312-0.652
				c-0.019-0.037-0.039-0.073-0.078-0.149c-0.043,0.201-0.091,0.361-0.107,0.526c-0.007,0.052,0.062,0.107,0.101,0.162
				c-0.087,0.047-0.311-0.004-0.377-0.096c0.233-0.041,0.198-0.248,0.227-0.396C702.536,47.682,702.694,47.52,702.473,47.37z"/>
			<path fill="#1F2327" d="M711.83,46.635c0.154,0.016,0.285,0.045,0.323,0.213c0.037,0.158-0.042,0.315-0.206,0.418
				c-0.035,0.021-0.072,0.043-0.113,0.055c-0.111,0.039-0.223,0.065-0.318-0.024c-0.083-0.078-0.09-0.147-0.035-0.298
				c-0.079-0.062-0.165-0.105-0.226-0.182c-0.034-0.043-0.034-0.127-0.022-0.188c0.021-0.149,0.257-0.317,0.429-0.312
				C711.831,46.32,711.896,46.434,711.83,46.635z M711.847,47.225c0.046-0.058,0.128-0.113,0.134-0.176
				c0.017-0.105-0.079-0.144-0.174-0.13c-0.062,0.008-0.166-0.037-0.175,0.086C711.625,47.102,711.717,47.197,711.847,47.225z
				 M711.525,46.729c0.066-0.056,0.112-0.09,0.155-0.125c-0.052-0.055-0.094-0.127-0.155-0.147
				c-0.027-0.013-0.105,0.078-0.131,0.134C711.385,46.604,711.466,46.665,711.525,46.729z"/>
			<path fill="#1F2327" d="M706.483,48.215c-0.024-0.046-0.034-0.119-0.071-0.134c-0.072-0.026-0.158-0.022-0.236-0.029
				c-0.002,0.089-0.004,0.175-0.004,0.263c0.059-0.01,0.121-0.01,0.178-0.027c0.03-0.014,0.049-0.061,0.072-0.092
				c0.018,0.007,0.033,0.009,0.049,0.014c0,0.104,0,0.208-0.004,0.312c0,0.002-0.068,0.012-0.098,0
				c-0.06-0.021-0.108-0.057-0.16-0.082c-0.021,0.055-0.055,0.106-0.051,0.155c0.006,0.068,0.021,0.173,0.062,0.191
				c0.095,0.042,0.194,0.012,0.267-0.081c0.021-0.032,0.062-0.061,0.092-0.086c0.013,0.007,0.022,0.013,0.038,0.021
				c-0.013,0.078-0.021,0.16-0.03,0.242c-0.289,0-0.568,0-0.862,0c0.248-0.234,0.098-0.521,0.137-0.773
				c0.009-0.039-0.067-0.094-0.119-0.164c0.041-0.008,0.082-0.024,0.126-0.026c0.174-0.003,0.35,0,0.522,0
				C706.586,47.916,706.621,47.984,706.483,48.215z"/>
			<path fill="#1F2327" d="M701.125,46.656c0.154,0.089,0.307,0.18,0.461,0.271c-0.002,0.017-0.002,0.033-0.002,0.048
				c-0.201-0.052-0.229,0.105-0.295,0.215c-0.056,0.088-0.105,0.182-0.155,0.271c-0.062,0.117-0.028,0.21,0.08,0.279
				c0.126,0.078,0.231,0.064,0.308-0.053c0.094-0.141,0.183-0.278,0.248-0.433c0.024-0.05-0.012-0.127-0.021-0.196
				c0.062-0.026,0.236,0.062,0.312,0.188c-0.187-0.034-0.219,0.117-0.28,0.229c-0.048,0.075-0.095,0.155-0.14,0.23
				c-0.098,0.158-0.217,0.221-0.383,0.148c-0.13-0.056-0.252-0.146-0.354-0.248c-0.084-0.084-0.064-0.203-0.014-0.305
				c0.055-0.103,0.11-0.199,0.169-0.298c0.062-0.101,0.138-0.198,0.021-0.319C701.098,46.68,701.112,46.666,701.125,46.656z"/>
			<path fill="#1F2327" d="M699.02,45.414c-0.034-0.243-0.034-0.243-0.194-0.333c-0.059,0.071-0.113,0.144-0.168,0.212
				c0.059,0.151,0.175,0.091,0.276,0.082c0.011,0.013,0.021,0.024,0.027,0.035c-0.074,0.093-0.146,0.186-0.225,0.285
				c-0.033-0.037-0.041-0.043-0.043-0.053c-0.015-0.078,0.026-0.182-0.08-0.219c-0.026-0.009-0.078,0.011-0.095,0.035
				c-0.049,0.086-0.2,0.141-0.104,0.284c0.01,0.01,0,0.032,0,0.104c-0.169-0.136-0.312-0.244-0.476-0.375
				c0.369-0.035,0.433-0.354,0.617-0.539c0.024-0.026-0.008-0.11-0.019-0.192c0.036,0.015,0.071,0.02,0.095,0.037
				c0.169,0.132,0.336,0.264,0.502,0.398C699.23,45.252,699.182,45.352,699.02,45.414z"/>
			<path fill="#1F2327" d="M714.098,45.854c0.016-0.047,0.021-0.098,0.037-0.146c0.116-0.328-0.051-0.709-0.356-0.809
				c-0.056-0.017-0.12,0.013-0.182,0.021c0.02,0.062,0.016,0.135,0.048,0.179c0.104,0.13,0.242,0.141,0.396,0.051
				c0.034,0.117-0.051,0.236-0.188,0.268c-0.186,0.038-0.357-0.074-0.396-0.258c-0.044-0.197,0.089-0.403,0.281-0.445
				c0.22-0.051,0.431,0.06,0.527,0.287c0.124,0.285,0.065,0.557-0.075,0.816c-0.013,0.021-0.038,0.033-0.062,0.049
				C714.118,45.861,714.11,45.857,714.098,45.854z"/>
			<path fill="#1F2327" d="M712.846,45.928c0.14-0.068,0.258-0.103,0.37,0.008c0.116,0.116,0.144,0.264,0.085,0.407
				c-0.047,0.117-0.108,0.23-0.188,0.326c-0.034,0.044-0.126,0.051-0.192,0.052c-0.02,0-0.067-0.078-0.057-0.104
				c0.018-0.038,0.08-0.096,0.105-0.086c0.141,0.037,0.199-0.006,0.196-0.147c-0.001-0.137-0.107-0.265-0.233-0.25
				c-0.072,0.011-0.145,0.068-0.212,0.113c-0.035,0.022-0.061,0.062-0.09,0.095c-0.012-0.01-0.021-0.016-0.038-0.021
				c0.013-0.04,0.021-0.084,0.034-0.125c0.024-0.074,0.069-0.153,0.069-0.229c0-0.052-0.062-0.103-0.096-0.152
				c-0.048,0.037-0.104,0.063-0.138,0.108c-0.028,0.033-0.025,0.087-0.037,0.13c-0.021-0.002-0.038,0-0.038-0.004
				c-0.071-0.129-0.01-0.229,0.07-0.316s0.182-0.172,0.311-0.123c0.048,0.018,0.076,0.098,0.095,0.151
				C712.879,45.799,712.856,45.855,712.846,45.928z"/>
			<path fill="#1F2327" d="M710.295,47.132c-0.076,0.046-0.132,0.076-0.187,0.11c-0.016-0.016-0.024-0.03-0.037-0.045
				c0.078-0.155,0.271-0.195,0.377-0.367c0.038,0.079,0.062,0.123,0.082,0.171c0.059,0.151,0.12,0.31,0.178,0.463
				c0.069,0.187,0.069,0.187,0.265,0.224c-0.035,0.082-0.432,0.244-0.594,0.237c0.021-0.032,0.031-0.069,0.052-0.075
				c0.117-0.045,0.099-0.117,0.062-0.207C710.422,47.479,710.361,47.311,710.295,47.132z"/>
			<path fill="#1F2327" d="M712.064,33.492c0,0.166,0,0.318,0,0.47c-0.007,0.45-0.011,0.902-0.014,1.354
				c-0.007,1.184-0.011,2.367-0.019,3.551c-0.006,0.814-0.015,1.628-0.029,2.438c0,0.07-0.039,0.161-0.093,0.205
				c-1.499,1.237-3.001,2.471-4.506,3.704c-0.396,0.325-0.794,0.647-1.188,0.979c-0.107,0.094-0.192,0.097-0.308-0.002
				c-1.856-1.588-3.718-3.172-5.574-4.766c-0.052-0.045-0.098-0.132-0.098-0.2c0.002-0.823,0.014-1.646,0.02-2.469
				c0.004-0.364,0-0.73,0.004-1.099c0.002-0.931,0.01-1.862,0.017-2.795c0.002-0.442,0.013-0.884,0.011-1.327
				c0-0.112,0.039-0.147,0.146-0.147c1.142,0.011,2.278,0.021,3.424,0.028c0.703,0.007,1.403,0.013,2.107,0.017
				c0.908,0.005,1.818,0.01,2.728,0.014c1.014,0.007,2.022,0.011,3.036,0.02C711.84,33.471,711.947,33.483,712.064,33.492z
				 M706.072,46.057c0.604-0.498,1.188-0.993,1.79-1.466c0.223-0.172,0.374-0.348,0.335-0.642c-0.005-0.021,0-0.045,0-0.071
				c0.008-1.634,0.02-3.272,0.025-4.908c0.006-0.672,0.006-1.342,0.006-2.011c0-0.112,0-0.226,0-0.356
				c-0.051,0.034-0.088,0.053-0.117,0.077c-0.623,0.5-1.25,0.996-1.872,1.495c-0.078,0.064-0.13,0.074-0.217,0.003
				c-0.548-0.46-1.1-0.912-1.646-1.364c-0.085-0.069-0.169-0.134-0.269-0.211c-0.004,0.045-0.01,0.066-0.01,0.089
				c-0.009,0.495-0.019,0.988-0.021,1.482c-0.011,1.27-0.021,2.54-0.028,3.811c-0.004,0.741-0.002,1.484-0.009,2.227
				c0,0.091,0.034,0.146,0.104,0.201c0.229,0.189,0.455,0.389,0.685,0.583C705.236,45.348,705.65,45.698,706.072,46.057z
				 M700.506,33.63c-0.006,0.055-0.012,0.087-0.012,0.117c-0.008,0.295-0.012,0.592-0.014,0.885
				c-0.014,1.336-0.021,2.674-0.027,4.009c-0.006,0.818-0.004,1.636-0.01,2.454c-0.002,0.117,0.03,0.192,0.121,0.271
				c1.048,0.889,2.094,1.78,3.139,2.672c0.037,0.03,0.075,0.059,0.114,0.087c0.013-0.005,0.023-0.011,0.041-0.018
				c0-0.374-0.003-0.748,0-1.123c0.009-1.341,0.019-2.684,0.025-4.022c0.004-0.795,0-1.588,0.006-2.383
				c0.003-0.107-0.022-0.185-0.111-0.255c-0.995-0.816-1.988-1.639-2.982-2.459C700.705,33.788,700.612,33.717,700.506,33.63z
				 M711.854,33.715c-0.045,0.032-0.068,0.046-0.093,0.062c-1.076,0.854-2.147,1.711-3.223,2.569
				c-0.041,0.033-0.066,0.102-0.069,0.156c-0.013,0.412-0.021,0.826-0.021,1.239c-0.015,1.347-0.021,2.692-0.029,4.039
				c-0.004,0.735-0.004,1.473-0.006,2.209c0,0.041,0.006,0.079,0.011,0.123c0.021-0.009,0.03-0.011,0.036-0.016
				c1.068-0.878,2.136-1.76,3.209-2.631c0.119-0.096,0.156-0.202,0.158-0.343c0.006-1.616,0.018-3.232,0.023-4.85
				c0.007-0.662,0.007-1.321,0.007-1.983C711.857,34.109,711.854,33.925,711.854,33.715z M706.141,34.25
				c-0.017,0.023-0.03,0.041-0.041,0.062c-0.027,0.13-0.14,0.151-0.237,0.208c-0.285,0.152-0.574,0.313-0.767,0.598
				c-0.114,0.179-0.307,0.202-0.467,0.054c-0.028-0.029-0.055-0.057-0.076-0.087c-0.1-0.132-0.23-0.188-0.396-0.188
				c-0.062,0.002-0.146-0.019-0.148,0.085c-0.007,0.104,0.071,0.095,0.139,0.097c0.128,0.003,0.228,0.05,0.257,0.182
				c0.058,0.277,0.259,0.393,0.504,0.463c0.075,0.024,0.147,0.051,0.225,0.078c0.134,0.048,0.263,0.11,0.398,0.147
				c0.104,0.028,0.227,0.018,0.338,0.045c0.047,0.011,0.084,0.072,0.125,0.109c-0.037,0.031-0.071,0.075-0.115,0.097
				c-0.097,0.048-0.205,0.075-0.299,0.133c-0.107,0.066-0.104,0.148,0.018,0.194c0.359,0.135,0.728,0.132,1.086,0.011
				c0.128-0.041,0.136-0.134,0.017-0.205c-0.101-0.058-0.207-0.087-0.312-0.137c-0.036-0.021-0.091-0.062-0.089-0.085
				c0.004-0.039,0.048-0.08,0.082-0.101c0.035-0.023,0.082-0.027,0.127-0.027c0.439-0.004,0.793-0.257,1.188-0.4
				c0.017-0.005,0.027-0.021,0.048-0.032c0.229-0.164,0.336-0.407,0.274-0.638c-0.062-0.24-0.274-0.426-0.543-0.467
				c0,0.079,0.01,0.159,0,0.24c-0.018,0.151-0.062,0.293-0.213,0.364c-0.033,0.018-0.104,0.004-0.141-0.021
				c-0.203-0.15-0.393-0.324-0.604-0.465c-0.122-0.083-0.293-0.098-0.324-0.281C706.189,34.275,706.174,34.271,706.141,34.25z
				 M704.107,34.709c0.256-0.14,0.278-0.202,0.171-0.394C704.086,34.573,704.086,34.573,704.107,34.709z"/>
			<path fill="#1F2327" d="M707.33,35.574c-0.023-0.123-0.047-0.233-0.068-0.355c0.223-0.118,0.312-0.331,0.356-0.573
				c0.177,0.074,0.282,0.273,0.259,0.466C707.852,35.334,707.615,35.533,707.33,35.574z"/>
		</g>
	</g>
	<rect x="680.971" y="53.167" fill="#1F2327" width="41.418" height="0.813"/>
</g>
<g id="Layer_1_1_">
	<path fill="#EE6438" d="M-0.084,84.716C0.328,86.454,0.575,88.23,0.849,90H205.91c0.101-0.283,0.331-0.503,0.669-0.659
		c0.122-0.056,0.426,0.004,0.482,0.099c0.138,0.236,0.137,0.412,0.069,0.562h3.31c-0.329-0.532-0.709-1.04-1.236-1.479
		c-2.196-1.817-2.057-1.973-0.164-4.332c1.078,0.459,2.192,0.933,3.305,1.406c0.167,0.062,0.332,0.047,0.491-0.035
		c0.423-0.734,0.424-1.848,1.846-1.629c1.275,0.193,1.617,1.062,1.467,1.989c-0.213,1.325,0.261,2.738,0.105,4.076h5.437
		c0.283-0.894,0.554-1.79,0.802-2.699c1.272-4.674,0.815-9.485,2.045-14.108c0.158-0.599,0.11-1.312-0.074-1.912
		c-1.335-4.329-1.204-8.887-2.264-13.26c-0.606-2.498-1.988-4.772-2.263-7.355c-0.519-4.855-2.618-9.347-3.577-14.093
		c-0.69-3.423-2.167-6.369-4.345-9.142c-0.946-1.204-2.173-2.64-1.351-4.482c0.06-0.132-0.025-0.37-0.122-0.509
		c-2.153-3.076-3.769-6.478-6.211-9.373c-0.607-0.719-1.208-1.437-1.436-2.359c-0.146-0.589-0.494-0.963-1.113-1.127
		c-1.015-0.27-1.574-0.938-1.899-1.887c-0.447-1.308-1.998-1.478-2.888-2.5c-1.657-1.903-3.541-3.612-5.548-5.19H24.042
		c-0.563,0.563-1.125,1.129-1.677,1.702c-0.571,0.595-0.996,1.146-2.082,0.364c-0.739-0.531-2.098,0.683-1.77,1.752
		c0.612,1.977-0.443,3.314-1.351,4.841c-1.924,3.234-4.173,6.315-4.745,10.173c-0.255,1.716-1.431,3.212-2.612,4.482
		c-2.555,2.754-3.194,6.157-3.984,9.54c-0.675,2.891-1.292,5.797-2.045,8.669c-0.682,2.598-1.498,5.106-1.585,7.875
		c-0.106,3.367-0.888,6.724-1.47,10.066c-0.459,2.616-0.09,5.325-1.014,7.885c1.128,4.396-0.343,8.879,0.488,13.277
		c0.192,1.021,0.09,2.014-0.108,3.012C0.016,83.997-0.164,84.386-0.084,84.716z M210.749,75.15c1.08-0.479,1.536-1.155,2.381-1.189
		c1.358-0.053,1.503-0.673,1.13-1.844c-0.368-1.152,1.411-3.092,2.731-3.178c0.398-0.024,0.789,0.162,0.935,0.521
		c0.18,0.445-0.153,0.616-0.565,0.71c-0.759,0.177-1.136,0.673-1.129,1.396c0.008,0.875,0.739,0.808,1.367,1.051
		c1.186,0.456,0.815,1.557,0.602,2.408c-0.186,0.744-0.817,0.57-1.39,0.306c-0.47-0.226-1.053-0.736-1.386,0.078
		c-0.176,0.434,0.099,0.967,0.585,1.137c1.846,0.651,1.891,2.144,1.881,3.634c-0.008,1.098-0.165,2.188,0.269,3.262
		c0.073,0.185-0.089,0.595-0.271,0.705c-0.338,0.207-0.747,0.086-1.052-0.174c-0.52-0.44-0.512-1.338-0.975-1.752
		c-0.228-0.535-0.69-0.839-0.91-1.279c-0.229-0.459-0.662-0.562-1.038-0.367c-0.043-0.323-0.044-0.67-0.058-1.02
		c-0.008-0.216-0.006-0.429-0.007-0.643c0.506,0.146,1.012,0.301,1.23-0.279c0.338-0.889-0.596-1.074-1.242-1.388
		C213.787,75.29,213.643,75.208,210.749,75.15z M206.656,37.644c0.666-0.423,0.966-0.419,1.197-0.24
		c1.073,0.84,1.473,2.273,2.934,2.835c0.49,0.188,0.284,1.069-0.204,1.407c-0.683,0.474-1.626,0.023-1.6-0.496
		C209.068,39.452,207.872,38.608,206.656,37.644z"/>
	<g enable-background="new    ">
		<path fill="#FFFBF8" d="M40.947,30.776h-5.01v8.628H33.11V18.076h7.061c2.402,0,4.25,0.547,5.544,1.641s1.941,2.686,1.941,4.775
			c0,1.328-0.359,2.485-1.077,3.472s-1.716,1.724-2.996,2.212l5.01,9.053v0.176h-3.018L40.947,30.776z M35.938,28.477h4.321
			c1.396,0,2.507-0.362,3.333-1.086s1.238-1.692,1.238-2.906c0-1.32-0.393-2.332-1.179-3.037c-0.786-0.704-1.921-1.062-3.406-1.071
			h-4.307V28.477z"/>
		<path fill="#FFFBF8" d="M63.652,29.546h-9.243v7.559h10.737v2.3h-13.55V18.076H65v2.3H54.409v6.87h9.243V29.546z"/>
		<path fill="#FFFBF8" d="M83.662,18.076v14.502c-0.01,2.012-0.642,3.657-1.897,4.937s-2.957,1.997-5.105,2.153l-0.747,0.029
			c-2.334,0-4.194-0.63-5.581-1.89s-2.09-2.993-2.109-5.2V18.076h2.783V32.52c0,1.543,0.425,2.742,1.274,3.596
			c0.85,0.855,2.061,1.282,3.633,1.282c1.592,0,2.81-0.425,3.655-1.274s1.267-2.046,1.267-3.589V18.076H83.662z"/>
		<path fill="#FFFBF8" d="M94.385,29.897c-2.412-0.693-4.167-1.546-5.266-2.556c-1.099-1.012-1.648-2.259-1.648-3.743
			c0-1.68,0.671-3.069,2.014-4.167c1.343-1.1,3.088-1.648,5.237-1.648c1.465,0,2.771,0.283,3.918,0.85s2.036,1.348,2.666,2.344
			s0.945,2.085,0.945,3.267h-2.827c0-1.294-0.41-2.311-1.23-3.051c-0.82-0.739-1.978-1.109-3.472-1.109
			c-1.387,0-2.468,0.306-3.245,0.917c-0.776,0.612-1.165,1.46-1.165,2.546c0,0.871,0.369,1.607,1.106,2.209s1.992,1.152,3.765,1.651
			s3.159,1.049,4.16,1.648c1.001,0.602,1.743,1.302,2.227,2.103s0.725,1.743,0.725,2.827c0,1.729-0.674,3.113-2.021,4.152
			c-1.348,1.041-3.149,1.561-5.405,1.561c-1.465,0-2.832-0.281-4.102-0.842c-1.27-0.562-2.249-1.331-2.937-2.308
			s-1.033-2.085-1.033-3.325h2.827c0,1.289,0.476,2.307,1.428,3.055c0.952,0.746,2.224,1.12,3.816,1.12
			c1.484,0,2.622-0.303,3.413-0.908s1.187-1.431,1.187-2.476s-0.366-1.854-1.099-2.424C97.637,31.018,96.309,30.454,94.385,29.897z"
			/>
		<path fill="#FFFBF8" d="M117.954,29.546h-9.243v7.559h10.737v2.3h-13.55V18.076h13.403v2.3h-10.591v6.87h9.243V29.546z"/>
	</g>
	<g enable-background="new    ">
		<path fill="#FFFBF8" d="M33.125,71.404V50.076h6.021c1.855,0,3.496,0.41,4.922,1.23s2.527,1.987,3.303,3.501
			s1.169,3.252,1.179,5.215v1.362c0,2.012-0.388,3.774-1.165,5.288s-1.885,2.676-3.325,3.486s-3.118,1.226-5.032,1.245H33.125z
			 M35.938,52.376v16.729h2.959c2.168,0,3.855-0.674,5.061-2.023c1.206-1.349,1.809-3.27,1.809-5.762v-1.246
			c0-2.424-0.569-4.308-1.707-5.652c-1.138-1.344-2.751-2.025-4.841-2.045H35.938z"/>
		<path fill="#FFFBF8" d="M55.815,71.404h-2.812V50.076h2.812V71.404z"/>
		<path fill="#FFFBF8" d="M68.779,62.776h-5.01v8.628h-2.827V50.076h7.061c2.402,0,4.25,0.547,5.544,1.641s1.941,2.686,1.941,4.775
			c0,1.328-0.359,2.485-1.077,3.472s-1.716,1.724-2.996,2.212l5.01,9.053v0.176h-3.018L68.779,62.776z M63.77,60.477h4.321
			c1.396,0,2.507-0.362,3.333-1.086s1.238-1.692,1.238-2.906c0-1.32-0.393-2.332-1.179-3.037c-0.786-0.704-1.921-1.062-3.406-1.071
			H63.77V60.477z"/>
		<path fill="#FFFBF8" d="M91.484,61.546h-9.243v7.559h10.737v2.3h-13.55V50.076h13.403v2.3H82.241v6.87h9.243V61.546z"/>
		<path fill="#FFFBF8" d="M112.168,64.637c-0.264,2.256-1.096,3.997-2.498,5.223s-3.264,1.838-5.588,1.838
			c-2.52,0-4.539-0.903-6.057-2.71s-2.278-4.224-2.278-7.251v-2.051c0-1.982,0.354-3.726,1.062-5.229s1.711-2.659,3.01-3.464
			c1.299-0.807,2.803-1.209,4.512-1.209c2.266,0,4.082,0.633,5.449,1.896c1.367,1.266,2.163,3.016,2.388,5.252h-2.827
			c-0.244-1.704-0.774-2.938-1.589-3.702c-0.815-0.765-1.956-1.146-3.42-1.146c-1.797,0-3.206,0.665-4.226,1.994
			s-1.531,3.221-1.531,5.674v2.066c0,2.317,0.483,4.159,1.45,5.527s2.319,2.053,4.058,2.053c1.562,0,2.761-0.354,3.596-1.062
			s1.389-1.941,1.663-3.699H112.168z"/>
		<path fill="#FFFBF8" d="M130.317,52.376h-6.855v19.028h-2.798V52.376h-6.841v-2.3h16.494V52.376z"/>
		<path fill="#FFFBF8" d="M149.478,61.429c0,2.09-0.352,3.914-1.055,5.472s-1.699,2.746-2.988,3.566s-2.793,1.23-4.512,1.23
			c-1.68,0-3.169-0.412-4.468-1.238c-1.299-0.824-2.307-2.001-3.025-3.529s-1.086-3.299-1.106-5.311v-1.538
			c0-2.051,0.356-3.862,1.069-5.435s1.721-2.775,3.025-3.611c1.304-0.834,2.795-1.252,4.475-1.252c1.709,0,3.215,0.413,4.519,1.238
			s2.307,2.021,3.01,3.588c0.703,1.568,1.055,3.392,1.055,5.472V61.429z M146.68,60.052c0-2.529-0.508-4.47-1.523-5.823
			c-1.016-1.352-2.437-2.028-4.263-2.028c-1.777,0-3.176,0.677-4.197,2.028c-1.021,1.354-1.545,3.23-1.575,5.633v1.567
			c0,2.451,0.515,4.378,1.545,5.778c1.03,1.402,2.449,2.103,4.255,2.103c1.816,0,3.223-0.661,4.219-1.985
			c0.996-1.322,1.509-3.22,1.538-5.69V60.052z"/>
		<path fill="#FFFBF8" d="M161.519,62.776h-5.01v8.628h-2.827V50.076h7.061c2.402,0,4.25,0.547,5.544,1.641s1.941,2.686,1.941,4.775
			c0,1.328-0.359,2.485-1.077,3.472s-1.716,1.724-2.996,2.212l5.01,9.053v0.176h-3.018L161.519,62.776z M156.509,60.477h4.321
			c1.396,0,2.507-0.362,3.333-1.086s1.238-1.692,1.238-2.906c0-1.32-0.393-2.332-1.179-3.037c-0.786-0.704-1.921-1.062-3.406-1.071
			h-4.307V60.477z"/>
		<path fill="#FFFBF8" d="M177.969,60.784l5.566-10.708h3.193l-7.354,13.374v7.954h-2.812V63.45l-7.354-13.374h3.223L177.969,60.784
			z"/>
	</g>
	<g>
		<polygon fill="#1882A1" points="416.347,75.78 416.348,75.782 416.352,75.775 		"/>
		<path fill="#1882A1" d="M-11.762,0.263C-11.523,0.136-11.28,0.058-11.035,0H-12C-11.921,0.087-11.842,0.175-11.762,0.263z"/>
		<polygon fill="#1882A1" points="416.352,75.773 416.352,75.775 416.354,75.771 		"/>
	</g>
</g>
<g id="Layer_3">
</g>
<g id="Layer_4">
	<g>
		<path fill="#FFFFFF" d="M267.14,37.963l2.584-13.658h3.942L269.407,43.5h-3.981l-3.125-12.841L259.177,43.5h-3.981l-4.258-19.195
			h3.942l2.597,13.632l3.164-13.632h3.349L267.14,37.963z"/>
		<path fill="#FFFFFF" d="M280.889,30.791c1.011-1.213,2.281-1.819,3.81-1.819c3.094,0,4.663,1.797,4.707,5.392V43.5h-3.81v-9.031
			c0-0.817-0.176-1.421-0.527-1.812c-0.352-0.391-0.936-0.586-1.753-0.586c-1.116,0-1.925,0.431-2.426,1.292V43.5h-3.81V23.25h3.81
			L280.889,30.791L280.889,30.791z"/>
		<path fill="#FFFFFF" d="M300.465,43.764c-2.092,0-3.795-0.642-5.109-1.925c-1.314-1.283-1.971-2.993-1.971-5.128v-0.369
			c0-1.433,0.277-2.713,0.831-3.843c0.554-1.129,1.338-1.999,2.353-2.61c1.016-0.61,2.173-0.916,3.474-0.916
			c1.951,0,3.487,0.615,4.608,1.846c1.12,1.23,1.681,2.975,1.681,5.234v1.556h-9.083c0.123,0.932,0.495,1.679,1.114,2.241
			c0.62,0.562,1.404,0.844,2.354,0.844c1.468,0,2.615-0.532,3.441-1.595l1.872,2.096c-0.571,0.809-1.345,1.439-2.32,1.892
			C302.732,43.537,301.651,43.764,300.465,43.764z M300.03,32.043c-0.756,0-1.369,0.256-1.839,0.768
			c-0.471,0.512-0.771,1.245-0.903,2.198h5.3v-0.305c-0.018-0.848-0.246-1.503-0.686-1.966
			C301.462,32.275,300.838,32.043,300.03,32.043z"/>
		<path fill="#FFFFFF" d="M318.129,32.808c-0.519-0.07-0.976-0.105-1.371-0.105c-1.438,0-2.386,0.488-2.834,1.463V43.5h-3.81V29.235
			h3.599l0.105,1.701c0.765-1.31,1.821-1.964,3.177-1.964c0.422,0,0.814,0.057,1.187,0.171L318.129,32.808z"/>
		<path fill="#FFFFFF" d="M327.896,43.764c-2.095,0-3.798-0.642-5.109-1.925c-1.314-1.283-1.971-2.993-1.971-5.128v-0.369
			c0-1.433,0.274-2.713,0.828-3.843c0.557-1.129,1.341-1.999,2.354-2.61c1.016-0.61,2.173-0.916,3.474-0.916
			c1.951,0,3.487,0.615,4.608,1.846c1.12,1.23,1.681,2.975,1.681,5.234v1.556h-9.083c0.123,0.932,0.495,1.679,1.114,2.241
			c0.62,0.562,1.404,0.844,2.354,0.844c1.468,0,2.612-0.532,3.438-1.595l1.872,2.096c-0.571,0.809-1.345,1.439-2.32,1.892
			C330.164,43.537,329.083,43.764,327.896,43.764z M327.461,32.043c-0.756,0-1.369,0.256-1.839,0.768
			c-0.471,0.512-0.771,1.245-0.903,2.198h5.3v-0.305c-0.018-0.848-0.243-1.503-0.686-1.966
			C328.893,32.275,328.27,32.043,327.461,32.043z"/>
		<path fill="#FFFFFF" d="M351.215,38.108l2.637-8.873h4.09l-5.735,16.479l-0.316,0.752c-0.853,1.863-2.259,2.795-4.219,2.795
			c-0.554,0-1.116-0.084-1.688-0.251v-2.888l0.577,0.014c0.724,0,1.262-0.108,1.615-0.329c0.355-0.221,0.635-0.583,0.837-1.095
			l0.448-1.173l-4.997-14.304h4.103L351.215,38.108z"/>
		<path fill="#FFFFFF" d="M360.271,36.236c0-1.415,0.271-2.676,0.814-3.784c0.545-1.108,1.329-1.964,2.354-2.571
			c1.021-0.606,2.213-0.91,3.563-0.91c1.924,0,3.495,0.589,4.713,1.767c1.219,1.178,1.896,2.777,2.037,4.799l0.025,0.976
			c0,2.188-0.61,3.944-1.832,5.267c-1.225,1.323-2.861,1.984-4.918,1.984c-2.059,0-3.697-0.659-4.924-1.978
			c-1.229-1.318-1.842-3.111-1.842-5.379v-0.171H360.271z M364.081,36.506c0,1.355,0.255,2.392,0.765,3.109
			c0.513,0.718,1.239,1.076,2.188,1.076c0.924,0,1.645-0.354,2.162-1.063c0.52-0.708,0.775-1.842,0.775-3.4
			c0-1.329-0.259-2.359-0.775-3.09c-0.521-0.73-1.248-1.096-2.188-1.096c-0.932,0-1.649,0.363-2.163,1.089
			C364.335,33.859,364.081,34.983,364.081,36.506z"/>
		<path fill="#FFFFFF" d="M386.293,42.05c-0.939,1.143-2.24,1.714-3.902,1.714c-1.526,0-2.692-0.439-3.5-1.318
			c-0.804-0.879-1.215-2.167-1.229-3.863v-9.347h3.811v9.226c0,1.487,0.679,2.23,2.029,2.23c1.293,0,2.18-0.449,2.664-1.346v-10.11
			h3.822V43.5H386.4L386.293,42.05z"/>
		<path fill="#FFFFFF" d="M408.756,40.692c0.703,0,1.273-0.193,1.713-0.58c0.44-0.387,0.668-0.901,0.688-1.542h3.573
			c-0.012,0.967-0.272,1.853-0.791,2.656c-0.521,0.805-1.229,1.429-2.132,1.872c-0.898,0.444-1.896,0.666-2.983,0.666
			c-2.039,0-3.647-0.648-4.825-1.944c-1.178-1.296-1.767-3.087-1.767-5.373v-0.25c0-2.197,0.585-3.951,1.753-5.26
			c1.17-1.31,2.771-1.964,4.812-1.964c1.784,0,3.215,0.508,4.291,1.522c1.076,1.016,1.624,2.367,1.645,4.054h-3.573
			c-0.021-0.742-0.246-1.345-0.688-1.809c-0.438-0.464-1.02-0.696-1.737-0.696c-0.89,0-1.561,0.324-2.013,0.97
			c-0.453,0.647-0.68,1.697-0.68,3.149v0.396c0,1.47,0.225,2.526,0.673,3.169S407.842,40.692,408.756,40.692z"/>
		<path fill="#FFFFFF" d="M426.789,43.5c-0.176-0.343-0.304-0.769-0.383-1.279c-0.923,1.028-2.123,1.542-3.603,1.542
			c-1.396,0-2.555-0.404-3.473-1.213c-0.92-0.809-1.379-1.828-1.379-3.059c0-1.512,0.561-2.672,1.682-3.48
			c1.121-0.808,2.74-1.217,4.857-1.226h1.754v-0.817c0-0.659-0.17-1.187-0.508-1.582c-0.338-0.395-0.872-0.593-1.604-0.593
			c-0.642,0-1.145,0.154-1.51,0.461c-0.365,0.307-0.547,0.729-0.547,1.266h-3.812c0-0.826,0.259-1.591,0.769-2.294
			s1.229-1.254,2.162-1.655c0.932-0.399,1.977-0.6,3.137-0.6c1.758,0,3.153,0.441,4.186,1.325c1.033,0.883,1.553,2.125,1.553,3.724
			v6.183c0.009,1.354,0.195,2.377,0.564,3.072V43.5H426.789z M423.638,40.85c0.562,0,1.081-0.125,1.559-0.375
			c0.475-0.251,0.823-0.587,1.055-1.009v-2.452h-1.424c-1.907,0-2.922,0.659-3.045,1.978l-0.017,0.224
			c0,0.475,0.167,0.866,0.501,1.173C422.601,40.696,423.058,40.85,423.638,40.85z"/>
		<path fill="#FFFFFF" d="M438.126,29.235l0.117,1.648c1.02-1.274,2.387-1.912,4.102-1.912c1.513,0,2.64,0.444,3.375,1.332
			c0.738,0.888,1.115,2.215,1.133,3.981V43.5h-3.811v-9.123c0-0.809-0.176-1.395-0.527-1.76c-0.351-0.365-0.936-0.547-1.752-0.547
			c-1.071,0-1.877,0.457-2.414,1.371V43.5h-3.81V29.235H438.126z"/>
	</g>
	<g>
		<path fill="#1F2327" d="M681.806,59.277c-2.705-0.418-5.166,0.295-7.377,1.891c-0.392,0.188-0.723,0.465-1.042,0.748
			c-2.729,2.412-3.945,5.454-3.537,9.061c0.332,2.897,1.722,5.287,4.105,6.979c3.489,2.476,7.186,2.661,11,0.748
			c0.104-0.056,0.241-0.089,0.291-0.231c-0.038-0.011-0.051-0.019-0.061-0.015c-2.521,1.12-5.052,1.136-7.584,0.075
			c-0.449-0.188-0.926-0.354-1.244-0.758c0.136,0.037,0.273,0.062,0.404,0.108c2.928,1.101,5.769,0.938,8.492-0.61
			c4.432-2.516,6.15-8.131,3.856-12.683C687.597,61.586,685.132,59.793,681.806,59.277z M673.359,71.034
			c0.078,0.278,0.261,0.526,0.268,0.905C673.42,71.619,673.443,71.312,673.359,71.034z M685.322,76.368
			c-3.246,1.989-7.573,1.333-10.084-1.522c-0.646-0.729-1.166-1.537-1.515-2.451c-0.025-0.076-0.111-0.166-0.003-0.222
			c0.106-0.053,0.146,0.062,0.184,0.134c0.617,1.158,1.469,2.107,2.564,2.827c1.984,1.304,4.145,1.646,6.422,1.026
			c1.271-0.346,2.405-0.973,3.343-1.938c0.23-0.242,0.486-0.457,0.634-0.771c-0.68,0.603-1.403,1.131-2.241,1.489
			c-3.233,1.396-7.046,0.076-8.75-3.016c-0.219-0.396-0.387-0.812-0.508-1.26c1.157,2.066,2.855,3.314,5.239,3.587
			c1.668,0.19,3.414-0.442,4.016-0.993c-0.597,0.172-1.115,0.348-1.661,0.424c-3.09,0.422-6.081-1.742-6.639-4.812
			c-0.604-3.312,1.536-6.398,4.849-6.998c1.771-0.316,3.334,0.188,4.748,1.232C690.504,66.514,690.193,73.383,685.322,76.368z"/>
		<path fill="#1F2327" d="M717.384,76.092c-0.06-0.104-0.207-0.255-0.001-0.332c0.726-0.275,0.883-0.902,0.924-1.548
			c0.069-1.06-0.328-2.125-1.807-2.021c-0.403,0.025-0.812,0.02-1.217-0.004c-0.29-0.021-0.389,0.076-0.383,0.369
			c0.015,0.836,0.005,1.672,0.005,2.508h0.001c0,0.789,0.008,1.576-0.003,2.361c-0.004,0.295,0.015,0.465,0.398,0.467
			c0.417,0.004,0.388-0.211,0.38-0.482c-0.01-0.393-0.011-0.788,0.006-1.18c0.006-0.145-0.104-0.369,0.13-0.4
			c0.225-0.032,0.479-0.104,0.637,0.205c0.24,0.471,0.56,0.9,0.771,1.382c0.188,0.422,0.469,0.501,0.871,0.467
			c0.261-0.021,0.254-0.102,0.146-0.286C717.951,77.1,717.666,76.596,717.384,76.092z M716.679,74.859
			c-0.05-0.006-0.099-0.002-0.146-0.002c-0.855,0-0.855,0-0.852-0.866c0.009-0.823,0.009-0.823,0.863-0.815
			c0.726,0.008,0.981,0.2,0.997,0.773C717.556,74.469,717.466,74.93,716.679,74.859z"/>
		<path fill="#1F2327" d="M693.455,68.177c-0.387-0.09-0.778-0.106-1.171-0.14c-0.271-0.021-0.545-0.086-0.63-0.414
			c-0.087-0.343-0.015-0.63,0.271-0.857c0.565-0.457,1.493-0.209,1.745,0.469c0.028,0.076,0.021,0.16,0.143,0.183
			c0.506,0.082,0.688-0.128,0.558-0.622c-0.153-0.592-0.505-0.977-1.11-1.1c-0.453-0.094-0.9-0.079-1.347,0.07
			c-0.785,0.269-1.146,0.961-1.03,2.012c0.075,0.705,0.51,1.076,1.336,1.172c0.365,0.043,0.739,0.018,1.098,0.142
			c0.443,0.158,0.639,0.722,0.34,1.085c-0.312,0.383-0.75,0.454-1.208,0.377c-0.416-0.066-0.759-0.289-0.838-0.725
			c-0.082-0.446-0.358-0.208-0.562-0.198c-0.28,0.017-0.236,0.214-0.198,0.406c0.198,0.981,0.824,1.485,1.857,1.483
			c1.484,0.066,2.095-1.332,1.757-2.422C694.306,68.595,693.968,68.295,693.455,68.177z"/>
		<path fill="#1F2327" d="M694.062,77.884c0.229-0.028,0.28-0.065,0.15-0.28c-0.304-0.504-0.59-1.021-0.888-1.529
			c-0.091-0.157-0.158-0.274,0.096-0.35c0.304-0.086,0.489-0.322,0.617-0.597c0.275-0.594,0.313-1.208,0.14-1.836
			c-0.205-0.724-0.677-1.084-1.428-1.097c-0.506-0.006-1.011,0.01-1.514-0.01c-0.282-0.012-0.393,0.066-0.382,0.371
			c0.021,0.82,0.008,1.646,0.008,2.475c0,0.85,0.012,1.697-0.007,2.547c-0.008,0.338,0.197,0.298,0.407,0.303
			s0.391,0.012,0.372-0.297c-0.021-0.441-0.015-0.886,0.001-1.328c0.005-0.15-0.107-0.391,0.145-0.428
			c0.235-0.036,0.503-0.088,0.662,0.23c0.229,0.461,0.539,0.885,0.748,1.354C693.378,77.827,693.65,77.93,694.062,77.884z
			 M692.941,74.85c-0.319,0.008-0.643,0-0.957,0.023c-0.275,0.02-0.392-0.071-0.354-0.354c0.021-0.156,0.003-0.318,0.003-0.479
			c0.005-0.867,0.005-0.867,0.904-0.865c0.832,0.003,1.185,0.495,0.917,1.276C693.369,74.701,693.211,74.844,692.941,74.85z"/>
		<path fill="#1F2327" d="M703.505,66.102c0.013,0.823,0.005,1.647,0.005,2.476c-0.001,0-0.001,0-0.003,0
			c0,0.837,0.011,1.673-0.005,2.509c-0.006,0.298,0.152,0.309,0.371,0.301c0.207-0.004,0.395,0.021,0.381-0.287
			c-0.017-0.44-0.011-0.889,0-1.328c0.004-0.143-0.09-0.369,0.143-0.396c0.233-0.021,0.509-0.129,0.675,0.202
			c0.249,0.49,0.555,0.958,0.805,1.447c0.143,0.283,0.329,0.404,0.637,0.357c0.116-0.019,0.273,0.059,0.349-0.055
			c0.07-0.114-0.055-0.227-0.11-0.329c-0.264-0.459-0.53-0.914-0.796-1.372c-0.104-0.178-0.156-0.322,0.127-0.404
			c0.271-0.076,0.45-0.295,0.562-0.548c0.275-0.616,0.341-1.252,0.123-1.903c-0.224-0.67-0.632-0.983-1.336-1.002
			c-0.525-0.011-1.058,0.016-1.586-0.004C703.586,65.76,703.501,65.842,703.505,66.102z M705.064,66.719c0.034,0,0.07,0,0.107,0
			c0.833,0,1.143,0.42,0.92,1.239c-0.073,0.276-0.244,0.429-0.515,0.444c-0.368,0.021-0.736,0.009-1.105,0.017
			c-0.156,0.002-0.222-0.074-0.222-0.226c0.001-0.221,0-0.44,0-0.663C704.25,66.719,704.25,66.719,705.064,66.719z"/>
		<path fill="#1F2327" d="M706.098,76.938c0.301-0.598,0.371-1.237,0.395-1.955c-0.018-0.777-0.146-1.588-0.702-2.256
			c-0.752-0.897-1.958-0.84-2.639,0.113c-0.367,0.516-0.541,1.104-0.591,1.723c-0.076,1.021,0.062,1.996,0.788,2.785
			C704.244,78.314,705.507,78.121,706.098,76.938z M703.801,76.604c-0.639-0.722-0.639-2.465-0.002-3.177
			c0.425-0.474,1.021-0.473,1.438,0.011c0.401,0.471,0.471,1.037,0.479,1.67c-0.023,0.522-0.091,1.084-0.507,1.525
			C704.775,77.09,704.218,77.074,703.801,76.604z"/>
		<path fill="#1F2327" d="M697.566,72.188c-0.766,0.018-1.525,0.021-2.288,0.002c-0.286-0.008-0.354,0.099-0.352,0.36
			c0.016,0.825,0.005,1.65,0.005,2.474h-0.002c0,0.787,0,1.576,0,2.362c0,0.487,0,0.489,0.505,0.49
			c0.616,0.002,1.231,0.01,1.85-0.002c0.769-0.015,0.655,0.174,0.672-0.726c0.003-0.189-0.063-0.269-0.256-0.264
			c-0.331,0.012-0.665,0.008-0.995,0.008c-1.081,0-1.075,0-1.024-1.104c0.014-0.202,0.068-0.283,0.281-0.273
			c0.418,0.014,0.836,0.01,1.255,0.004c0.726-0.016,0.622,0.139,0.643-0.689c0.004-0.203-0.064-0.29-0.276-0.28
			c-0.295,0.015-0.591,0.003-0.887,0.003c-1.062,0-1.062,0-1.011-1.056c0.004-0.013,0.006-0.024,0.006-0.037
			c-0.019-0.188,0.062-0.261,0.259-0.256c0.455,0.009,0.909,0.005,1.364,0.001c0.759-0.007,0.614,0.088,0.646-0.646
			C697.971,72.253,697.845,72.182,697.566,72.188z"/>
		<path fill="#1F2327" d="M697.993,66.363c-0.703-0.956-1.945-0.954-2.651,0.002c-0.803,1.09-0.848,3.162-0.091,4.273
			c0.804,1.18,2.292,1.077,2.946-0.195c0.291-0.569,0.422-1.176,0.422-1.812C698.624,67.67,698.428,66.952,697.993,66.363z
			 M697.425,70.102c-0.438,0.549-1.153,0.523-1.557-0.051c-0.543-0.777-0.551-2.212-0.018-2.976
			c0.477-0.677,1.348-0.603,1.729,0.146c0.193,0.377,0.29,0.812,0.294,1.437C697.86,69.1,697.793,69.645,697.425,70.102z"/>
		<path fill="#1F2327" d="M712.37,73.168c0.442,0.01,0.886,0.003,1.328,0c0.78-0.007,0.641,0.125,0.667-0.691
			c0.007-0.22-0.061-0.303-0.288-0.297c-0.8,0.01-1.602,0.014-2.397,0c-0.25-0.007-0.312,0.086-0.31,0.318
			c0.013,0.835,0.005,1.671,0.005,2.508h0.001c0,0.85,0.007,1.697-0.003,2.544c-0.004,0.236,0.064,0.325,0.312,0.319
			c0.652-0.014,1.308,0.004,1.954-0.005c0.854-0.011,0.697,0.153,0.728-0.748c0.007-0.222-0.099-0.271-0.287-0.265
			c-0.396,0.01-0.787,0.004-1.183,0.004c-0.78,0.002-0.78,0-0.781-0.762c0-0.107,0.001-0.223-0.006-0.33
			c-0.012-0.188,0.062-0.263,0.258-0.258c0.419,0.014,0.836,0.01,1.254,0.001c0.769-0.007,0.644,0.121,0.666-0.698
			c0.005-0.217-0.086-0.274-0.285-0.271c-0.354,0.012-0.713,0.003-1.066,0.003c-0.812,0-0.812,0-0.817-0.79
			c0-0.108,0.002-0.222-0.004-0.333C712.1,73.232,712.179,73.163,712.37,73.168z"/>
		<path fill="#1F2327" d="M711.384,68.559c0.001,0,0.002,0,0.004,0c0,0.838,0.007,1.674-0.005,2.508
			c-0.004,0.235,0.064,0.322,0.312,0.318c0.663-0.015,1.327-0.007,1.988-0.005c0.699,0.001,0.692,0.002,0.662-0.698
			c-0.009-0.188-0.065-0.266-0.257-0.262c-0.346,0.008-0.688,0-1.033,0c-1.021,0-1.016,0.001-0.982-1.021
			c0.008-0.246,0.08-0.354,0.343-0.348c0.505,0.016,1.009-0.004,1.512,0.01c0.238,0.006,0.347-0.076,0.327-0.312
			c-0.008-0.109-0.007-0.227,0.006-0.333c0.025-0.229-0.084-0.306-0.302-0.295c-0.331,0.012-0.663,0.002-0.995,0.002
			c-0.85,0-0.85,0-0.87-0.863c-0.002-0.049-0.006-0.1-0.011-0.146c-0.039-0.274,0.045-0.407,0.356-0.394
			c0.439,0.022,0.886,0.015,1.326,0.003c0.632-0.013,0.562,0.122,0.581-0.599c0.011-0.271-0.066-0.368-0.349-0.36
			c-0.762,0.016-1.525,0.014-2.286-0.003c-0.258-0.006-0.341,0.074-0.337,0.333C711.393,66.914,711.384,67.736,711.384,68.559z"/>
		<path fill="#1F2327" d="M710.773,69.604c-0.318-0.244-0.484-0.203-0.656,0.15c-0.063,0.132-0.143,0.264-0.229,0.377
			c-0.438,0.562-1.087,0.564-1.525,0.001c-0.359-0.456-0.452-0.998-0.446-1.823c0.001-0.343,0.081-0.691,0.314-1.121
			c0.396-0.729,1.273-0.771,1.736-0.084c0.062,0.096,0.133,0.188,0.162,0.289c0.094,0.322,0.253,0.317,0.509,0.159
			c0.196-0.122,0.241-0.241,0.156-0.448c-0.114-0.285-0.222-0.568-0.411-0.818c-0.68-0.896-1.958-0.887-2.607,0.031
			c-0.787,1.104-0.854,3.127-0.135,4.287c0.368,0.592,0.869,0.959,1.605,0.912c0.721-0.045,1.631-1.014,1.627-1.729
			C710.872,69.702,710.839,69.652,710.773,69.604z"/>
		<path fill="#1F2327" d="M699.026,68.639c0.021,0.729,0.166,1.438,0.583,2.063c0.687,1.024,1.929,1.024,2.623,0.003
			c0.201-0.299,0.345-0.628,0.428-0.973c0.303-1.25,0.116-2.522,0.161-3.784c0.003-0.075-0.021-0.136-0.106-0.173
			c-0.348-0.146-0.621,0.021-0.629,0.39c-0.024,0.958,0.064,1.918-0.061,2.873c-0.066,0.499-0.229,0.958-0.622,1.298
			c-0.287,0.249-0.603,0.26-0.908,0.036c-0.47-0.334-0.638-0.839-0.684-1.373c-0.043-0.501-0.01-1.007-0.01-1.511
			c-0.013,0-0.022,0-0.038,0c0-0.467-0.013-0.938,0.004-1.401c0.013-0.271-0.101-0.342-0.349-0.326
			c-0.229,0.015-0.429-0.021-0.417,0.332C699.031,66.941,698.999,67.789,699.026,68.639z"/>
		<path fill="#1F2327" d="M701.723,75.919c-0.331-0.162-0.288,0.144-0.379,0.279c-0.047,0.071-0.064,0.159-0.11,0.229
			c-0.22,0.341-0.493,0.583-0.93,0.565c-0.416-0.02-0.68-0.266-0.856-0.606c-0.229-0.433-0.327-0.899-0.307-1.34
			c0.008-0.688,0.123-1.13,0.396-1.521c0.415-0.586,1.146-0.61,1.591-0.045c0.104,0.134,0.167,0.297,0.252,0.444
			c0.062,0.104,0.06,0.31,0.266,0.189c0.18-0.103,0.468-0.109,0.438-0.414c-0.063-0.7-0.771-1.484-1.438-1.617
			c-0.725-0.144-1.444,0.219-1.822,0.955c-0.646,1.25-0.646,2.535-0.088,3.807c0.402,0.927,1.229,1.354,2.043,1.097
			c0.696-0.219,1.007-0.801,1.268-1.438C702.201,76.123,701.979,76.046,701.723,75.919z"/>
		<path fill="#1F2327" d="M710.806,72.225c-0.187-0.149-0.767,0.008-0.839,0.229c-0.355,1.097-0.713,2.194-1.067,3.294
			c-0.082,0.252-0.081,0.529-0.292,0.848c-0.12-0.437-0.206-0.804-0.319-1.158c-0.314-0.996-0.638-1.986-0.961-2.98
			c-0.082-0.248-0.445-0.379-0.769-0.246c-0.25,0.104-0.073,0.298-0.029,0.434c0.54,1.67,1.093,3.338,1.634,5.008
			c0.062,0.195,0.172,0.254,0.369,0.273c0.351,0.036,0.557-0.076,0.619-0.437c0.021-0.134,0.08-0.261,0.123-0.388
			c0.507-1.516,1.016-3.025,1.518-4.541C710.824,72.454,710.938,72.33,710.806,72.225z"/>
		<path fill="#1F2327" d="M722.146,72.184c-0.383-0.025-0.636,0.059-0.804,0.449c-0.28,0.66-0.633,1.292-0.999,2.031
			c-0.357-0.727-0.695-1.327-0.958-1.961c-0.176-0.426-0.425-0.567-0.862-0.521c-0.242,0.025-0.271,0.086-0.172,0.286
			c0.259,0.503,0.472,1.032,0.768,1.513c0.666,1.078,1.007,2.225,0.838,3.492c-0.045,0.327,0.079,0.428,0.404,0.416
			c0.283-0.011,0.403-0.095,0.363-0.386c-0.18-1.3,0.187-2.465,0.866-3.562c0.285-0.457,0.492-0.963,0.736-1.443
			C722.438,72.293,722.405,72.201,722.146,72.184z"/>
		<path fill="#1F2327" d="M699.921,64.309c-0.46,0.324-1.354,0.227-1.496-0.363c-0.073-0.312-0.272-0.147-0.434-0.135
			c-0.229,0.022-0.188,0.181-0.149,0.33c0.163,0.67,0.671,1.03,1.462,1.021c0.101,0,0.196,0.01,0.293-0.002
			c0.663-0.074,1.169-0.655,1.152-1.312c-0.018-0.681-0.416-1.062-1.16-1.121c-0.229-0.02-0.464-0.041-0.698-0.063
			c-0.18-0.021-0.341-0.093-0.4-0.271c-0.071-0.199-0.029-0.395,0.115-0.552c0.34-0.374,1.212-0.276,1.396,0.187
			c0.119,0.295,0.298,0.195,0.471,0.168c0.251-0.041,0.168-0.242,0.138-0.383c-0.088-0.354-0.288-0.625-0.646-0.748
			c-0.471-0.16-0.942-0.151-1.406,0.031c-0.513,0.204-0.792,0.738-0.709,1.318c0.083,0.572,0.393,0.85,1.021,0.915
			c0.293,0.03,0.588,0.052,0.879,0.097c0.199,0.03,0.332,0.159,0.373,0.361C700.159,63.995,700.094,64.186,699.921,64.309z"/>
		<path fill="#1F2327" d="M705.642,64.748c-0.001,0.209,0.014,0.346,0.284,0.347c0.285,0.003,0.312-0.127,0.312-0.358
			c-0.015-0.811-0.004-1.615-0.004-2.43c0.104,0.023,0.11,0.121,0.15,0.191c0.484,0.799,0.979,1.594,1.448,2.396
			c0.142,0.239,0.349,0.205,0.547,0.181c0.225-0.027,0.139-0.229,0.139-0.358c0.01-1.105,0.001-2.214,0.01-3.32
			c0.001-0.215,0.004-0.371-0.301-0.364c-0.314,0.004-0.287,0.188-0.282,0.389c0.01,0.849-0.034,1.694,0.03,2.54
			c-0.525-0.936-1.131-1.802-1.664-2.711c-0.13-0.223-0.304-0.229-0.501-0.201c-0.249,0.035-0.158,0.243-0.161,0.385
			C705.641,62.534,705.646,63.643,705.642,64.748z"/>
		<path fill="#1F2327" d="M691.003,65.078c0.242,0.102,0.506-0.025,0.605-0.28c0.267-0.679,0.267-0.679,0.999-0.676
			c0.012,0,0.021,0,0.033,0c0.702,0.004,0.715,0,0.941,0.661c0.073,0.217,0.154,0.359,0.387,0.301
			c0.217,0.01,0.403,0.038,0.283-0.279c-0.438-1.171-0.868-2.347-1.296-3.521c-0.067-0.185-0.161-0.271-0.375-0.263
			c-0.2,0.006-0.279,0.086-0.329,0.267c-0.059,0.212-0.146,0.415-0.223,0.622c-0.354,0.951-0.707,1.906-1.055,2.865
			C690.949,64.865,690.808,64.996,691.003,65.078z M692.364,62.682c0.075-0.23,0.146-0.466,0.246-0.785
			c0.169,0.557,0.312,1.021,0.457,1.496c-0.042,0.021-0.07,0.047-0.104,0.049C692.099,63.496,692.099,63.496,692.364,62.682z"/>
		<path fill="#1F2327" d="M694.346,63.66c0.137,0.648,0.412,1.234,1.119,1.43c0.783,0.215,1.569-0.447,1.712-1.372
			c0.074-0.476,0.06-0.952,0.067-1.428c-0.001-0.32-0.012-0.642,0.004-0.96c0.009-0.225-0.068-0.303-0.297-0.297
			c-0.208,0.004-0.279,0.074-0.275,0.281c0.014,0.543-0.025,1.086,0.017,1.625c0.027,0.394-0.113,0.721-0.266,1.049
			c-0.124,0.27-0.342,0.451-0.663,0.453c-0.324,0-0.523-0.194-0.668-0.452c-0.163-0.294-0.232-0.618-0.231-0.957
			c0-0.591-0.009-1.181,0.002-1.771c0.005-0.227-0.123-0.235-0.283-0.222c-0.134,0.012-0.319-0.059-0.312,0.189
			C694.293,62.039,694.182,62.859,694.346,63.66z"/>
		<path fill="#1F2327" d="M701.327,61.752c0.145-0.023,0.296,0.005,0.442-0.006c0.205-0.014,0.281,0.072,0.276,0.279
			c-0.01,0.468-0.004,0.936-0.002,1.4c0,0.443,0.007,0.889-0.004,1.329c-0.004,0.226,0.051,0.336,0.308,0.336
			c0.262,0.002,0.312-0.104,0.311-0.332c-0.009-0.726-0.004-1.45-0.004-2.179c0-0.812,0.001-0.812,0.792-0.834
			c0.022,0,0.05-0.002,0.071,0c0.303,0.021,0.251-0.196,0.258-0.377c0.004-0.18,0.02-0.344-0.256-0.337
			c-0.773,0.013-1.552,0.009-2.323,0.001c-0.209-0.004-0.27,0.07-0.281,0.275C700.891,61.636,700.961,61.811,701.327,61.752z"/>
		<path fill="#1F2327" d="M704.638,65.094c0.259,0,0.306-0.113,0.3-0.334c-0.013-0.553-0.005-1.104-0.005-1.656
			c-0.001,0-0.003,0-0.004,0c0-0.578,0-1.151,0.001-1.729c0-0.18,0.021-0.342-0.251-0.339c-0.239,0.003-0.316,0.082-0.314,0.317
			c0.009,1.146,0.005,2.283,0,3.429C704.36,64.98,704.39,65.094,704.638,65.094z"/>
		<path fill="#1F2327" d="M710.098,80.9c-0.094-0.197-0.146-0.308-0.192-0.414c-0.158-0.346-0.317-0.689-0.47-1.041
			c-0.061-0.139-0.16-0.168-0.296-0.158c-0.171,0.011-0.143,0.141-0.143,0.244c-0.002,0.468-0.002,0.933,0.003,1.4
			c0,0.092-0.015,0.211,0.19,0.186c0-0.521,0-1.047,0-1.572c0.122,0.112,0.18,0.232,0.232,0.354
			c0.162,0.357,0.327,0.713,0.483,1.074c0.05,0.112,0.108,0.184,0.246,0.176c0.103-0.006,0.162-0.045,0.162-0.149
			c0.003-0.562,0.002-1.12,0.002-1.683c-0.046-0.006-0.09-0.014-0.136-0.021C710.081,79.789,710.209,80.307,710.098,80.9z"/>
		<path fill="#1F2327" d="M715.636,80.023c0.188-0.191,0.05-0.598-0.179-0.688c-0.259-0.104-0.555-0.12-0.79-0.021
			c-0.184,0.08-0.057,0.354-0.078,0.543c-0.014,0.106-0.002,0.221-0.002,0.332h0.001c0,0.259-0.001,0.514,0.001,0.771
			c0,0.076,0.007,0.154,0.114,0.144c0.082-0.012,0.081-0.078,0.084-0.14c0.001-0.062-0.014-0.128,0.003-0.184
			c0.051-0.166-0.149-0.427,0.146-0.493c0.297-0.07,0.349,0.205,0.454,0.387c0.024,0.04,0.035,0.094,0.062,0.135
			c0.083,0.125,0.145,0.391,0.297,0.306c0.181-0.104-0.054-0.263-0.11-0.386C715.527,80.486,715.372,80.295,715.636,80.023z
			 M715.121,80.114c-0.213,0.03-0.358-0.011-0.338-0.278c0.014-0.195-0.03-0.414,0.271-0.396c0.203,0.015,0.425-0.004,0.435,0.312
			C715.493,80.018,715.385,80.136,715.121,80.114z"/>
		<path fill="#1F2327" d="M699.297,79.275c-0.489-0.029-0.729,0.218-0.786,0.808c-0.054,0.597,0.197,1.036,0.632,1.088
			c0.083,0.011,0.177,0,0.258-0.021c0.369-0.092,0.538-0.383,0.544-0.933C699.946,79.622,699.726,79.3,699.297,79.275z
			 M699.676,80.68c-0.065,0.276-0.275,0.312-0.514,0.305c-0.232-0.01-0.359-0.142-0.397-0.355c-0.021-0.146-0.025-0.292-0.038-0.429
			c0.014-0.134,0.021-0.259,0.036-0.38c0.035-0.239,0.188-0.375,0.421-0.385c0.235-0.011,0.432,0.071,0.5,0.338
			C699.763,80.077,699.753,80.378,699.676,80.68z"/>
		<path fill="#1F2327" d="M704.962,79.445c0-0.062-0.008-0.133-0.085-0.139c-0.108-0.011-0.104,0.084-0.104,0.15
			c-0.005,0.195,0,0.396,0,0.591c-0.004,0-0.005,0-0.006,0c0,0.187-0.002,0.368,0.001,0.556c0.007,0.258-0.114,0.375-0.381,0.383
			c-0.278,0.01-0.412-0.119-0.416-0.389c-0.006-0.385-0.004-0.766-0.007-1.146c-0.001-0.076-0.004-0.155-0.109-0.155
			c-0.073-0.001-0.104,0.059-0.104,0.122c0.007,0.438-0.046,0.888,0.03,1.323c0.058,0.322,0.3,0.438,0.598,0.429
			c0.308-0.007,0.535-0.164,0.562-0.476C704.979,80.283,704.958,79.863,704.962,79.445z"/>
		<path fill="#1F2327" d="M702.994,79.421c-0.034-0.127-0.118-0.133-0.229-0.134c-0.132-0.004-0.163,0.085-0.188,0.181
			c-0.138,0.496-0.275,0.993-0.412,1.49c-0.017,0.062-0.085,0.147,0.034,0.175c0.104,0.024,0.121-0.068,0.131-0.139
			c0.037-0.29,0.205-0.357,0.481-0.359c0.277-0.005,0.363,0.127,0.408,0.354c0.018,0.069,0.044,0.151,0.142,0.14
			c0.086-0.011,0.06-0.089,0.061-0.172C703.283,80.459,703.136,79.939,702.994,79.421z M703,80.438
			c-0.122,0.071-0.297,0.07-0.423-0.002c-0.117-0.066-0.032-0.199-0.005-0.3c0.059-0.209,0.121-0.415,0.183-0.62
			c0.021,0,0.044,0.004,0.064,0.004c0.057,0.209,0.125,0.414,0.164,0.625C703,80.241,703.127,80.367,703,80.438z"/>
		<path fill="#1F2327" d="M720.285,80.984c-0.273,0.006-0.302-0.141-0.286-0.35c0.016-0.188-0.088-0.447,0.274-0.418
			c0.086,0.008,0.236,0.051,0.242-0.078c0.01-0.173-0.158-0.104-0.25-0.104c-0.214,0.01-0.271-0.083-0.271-0.283
			c-0.002-0.197,0.056-0.304,0.27-0.279c0.084,0.01,0.173,0.004,0.258,0c0.073-0.002,0.16-0.006,0.153-0.106
			c-0.003-0.08-0.079-0.072-0.139-0.079c-0.663-0.107-0.75-0.036-0.755,0.631c-0.001,0.098-0.001,0.195-0.001,0.292
			c0,0.147,0,0.295,0,0.442c-0.003,0.502-0.002,0.513,0.484,0.492c0.156-0.01,0.449,0.092,0.449-0.076
			C720.717,80.874,720.434,80.982,720.285,80.984z"/>
		<path fill="#1F2327" d="M691.875,79.379c-0.029-0.107-0.132-0.088-0.216-0.092c-0.104-0.006-0.153,0.042-0.184,0.141
			c-0.138,0.508-0.276,1.014-0.417,1.521c-0.02,0.066-0.068,0.154,0.038,0.18c0.097,0.021,0.123-0.068,0.135-0.139
			c0.026-0.297,0.198-0.352,0.476-0.354c0.274-0.006,0.372,0.11,0.411,0.345c0.013,0.074,0.043,0.151,0.131,0.152
			c0.079,0.006,0.091-0.062,0.084-0.122C692.18,80.463,692.03,79.92,691.875,79.379z M691.61,80.475
			c-0.188-0.008-0.237-0.06-0.177-0.242c0.074-0.217,0.128-0.44,0.207-0.729c0.187,0.234,0.167,0.455,0.25,0.639
			C692.032,80.454,691.862,80.482,691.61,80.475z"/>
		<path fill="#1F2327" d="M706.275,80.16c-0.161-0.062-0.326-0.107-0.484-0.171c-0.145-0.06-0.197-0.177-0.18-0.328
			c0.019-0.158,0.132-0.197,0.26-0.211c0.097-0.011,0.195-0.011,0.292-0.009c0.113,0.002,0.3,0.115,0.318-0.034
			c0.021-0.197-0.198-0.095-0.312-0.13c-0.033-0.012-0.073-0.002-0.106-0.002c-0.29-0.004-0.604-0.017-0.666,0.358
			c-0.068,0.382,0.196,0.519,0.505,0.604c0.095,0.023,0.185,0.064,0.272,0.102c0.196,0.072,0.244,0.223,0.225,0.412
			c-0.026,0.223-0.183,0.241-0.353,0.229c-0.146-0.008-0.293-0.022-0.438-0.043c-0.073-0.01-0.156-0.035-0.173,0.066
			c-0.015,0.073,0.062,0.092,0.12,0.105c0.183,0.047,0.361,0.078,0.55,0.059c0.268-0.031,0.47-0.139,0.512-0.438
			C706.658,80.45,706.54,80.261,706.275,80.16z"/>
		<path fill="#1F2327" d="M712.422,80.182c-0.168-0.072-0.348-0.119-0.52-0.187c-0.14-0.054-0.229-0.146-0.211-0.308
			c0.018-0.166,0.13-0.23,0.272-0.244c0.108-0.008,0.219,0.012,0.328,0.007c0.096-0.003,0.26,0.104,0.269-0.064
			c0.01-0.146-0.172-0.084-0.269-0.104c-0.047-0.014-0.099-0.004-0.146-0.004c-0.291-0.006-0.594-0.002-0.656,0.371
			c-0.062,0.361,0.188,0.494,0.479,0.592c0.116,0.035,0.233,0.074,0.347,0.128c0.169,0.075,0.229,0.218,0.188,0.396
			c-0.037,0.178-0.165,0.231-0.329,0.223c-0.158-0.01-0.313-0.025-0.474-0.045c-0.073-0.008-0.157-0.041-0.173,0.063
			c-0.015,0.074,0.054,0.099,0.117,0.11c0.218,0.045,0.434,0.09,0.653,0.044c0.244-0.052,0.396-0.185,0.42-0.44
			C712.745,80.467,712.65,80.282,712.422,80.182z"/>
		<path fill="#1F2327" d="M713.837,80.982c-0.354,0.049-0.473-0.086-0.458-0.444c0.012-0.267,0.093-0.351,0.344-0.319
			c0.077,0.012,0.199,0.033,0.208-0.085c0.013-0.138-0.112-0.088-0.188-0.096c-0.062-0.007-0.124-0.002-0.188-0.007
			c-0.219-0.012-0.151-0.178-0.162-0.303c-0.007-0.125-0.013-0.236,0.176-0.261c0.176-0.021,0.5,0.11,0.488-0.104
			c-0.005-0.175-0.355-0.044-0.553-0.08c-0.035-0.009-0.074,0.002-0.109,0c-0.164-0.019-0.212,0.062-0.209,0.218
			c0.009,0.467,0.009,0.938,0,1.398c-0.003,0.172,0.057,0.254,0.231,0.244c0.24-0.012,0.485,0.022,0.76-0.067
			C714.056,80.926,713.933,80.969,713.837,80.982z"/>
		<path fill="#1F2327" d="M717.241,79.312c-0.145-0.043-0.129,0.105-0.153,0.191c-0.129,0.456-0.254,0.915-0.381,1.374
			c-0.025-0.004-0.049-0.007-0.074-0.011c-0.126-0.457-0.251-0.916-0.378-1.374c-0.021-0.089-0.04-0.229-0.169-0.188
			c-0.144,0.045-0.035,0.17-0.017,0.244c0.119,0.465,0.25,0.924,0.38,1.383c0.029,0.102,0.046,0.217,0.2,0.217
			c0.167,0,0.19-0.108,0.227-0.233c0.125-0.462,0.258-0.92,0.384-1.38C717.281,79.46,717.348,79.344,717.241,79.312z"/>
		<path fill="#1F2327" d="M707.581,79.288c-0.071-0.015-0.146-0.002-0.22-0.002c0,0.001,0,0.001,0,0.002
			c-0.139,0-0.271-0.001-0.408,0c-0.062,0.001-0.135-0.007-0.147,0.073c-0.016,0.106,0.073,0.119,0.146,0.107
			c0.286-0.031,0.28,0.148,0.273,0.35c-0.005,0.354-0.004,0.715,0.003,1.07c0.004,0.088-0.053,0.233,0.091,0.238
			c0.172,0.006,0.111-0.154,0.113-0.255c0.01-0.38,0.007-0.765,0.006-1.144c-0.001-0.133,0.004-0.25,0.181-0.258
			c0.092-0.004,0.246,0.036,0.235-0.102C707.841,79.209,707.676,79.309,707.581,79.288z"/>
		<path fill="#1F2327" d="M719.185,80.988c-0.43-0.03-0.534-0.131-0.56-0.553c-0.009-0.158-0.004-0.319,0.002-0.479
			c0.012-0.354,0.179-0.549,0.556-0.521c0.078,0.006,0.2,0.049,0.194-0.084c-0.005-0.121-0.136-0.076-0.213-0.084
			c-0.49-0.049-0.774,0.299-0.773,0.931c0.003,0.659,0.272,1,0.782,0.975c0.085-0.005,0.231,0.042,0.224-0.11
			C719.389,80.941,719.261,80.993,719.185,80.988z"/>
		<path fill="#1F2327" d="M697.137,79.788c-0.04,0.06-0.05,0.151-0.137,0.155c-0.093,0.004-0.107-0.086-0.14-0.146
			c-0.075-0.142-0.146-0.283-0.222-0.425c-0.041-0.079-0.107-0.106-0.183-0.058c-0.07,0.051-0.004,0.107,0.021,0.158
			c0.25,0.469,0.49,0.938,0.403,1.494c-0.013,0.073,0.008,0.162,0.106,0.156c0.104-0.007,0.089-0.104,0.078-0.172
			c-0.086-0.537,0.159-0.979,0.396-1.426c0.032-0.062,0.058-0.131,0.121-0.271C697.252,79.359,697.255,79.62,697.137,79.788z"/>
		<path fill="#1F2327" d="M694.124,80.988c-0.474,0.058-0.606-0.24-0.604-0.748c0.004-0.626,0.093-0.748,0.602-0.791
			c0.071-0.008,0.146,0.007,0.177-0.088c-0.388-0.178-0.721-0.084-0.875,0.271c-0.155,0.363-0.158,0.743-0.021,1.115
			c0.125,0.334,0.396,0.449,0.734,0.424c0.071-0.004,0.169,0.004,0.18-0.09C694.319,80.943,694.194,80.98,694.124,80.988z"/>
		<path fill="#1F2327" d="M700.835,79.287c-0.021-0.006-0.049,0.001-0.072-0.001c-0.226-0.035-0.303,0.06-0.292,0.284
			c0.019,0.369-0.005,0.736,0.012,1.103c0.006,0.146-0.084,0.412,0.075,0.41c0.225-0.003,0.118-0.271,0.112-0.414
			c-0.018-0.308,0.038-0.506,0.406-0.442c0.029,0.004,0.062-0.022,0.128-0.05c-0.114-0.137-0.232-0.09-0.333-0.09
			c-0.241,0.001-0.192-0.172-0.192-0.312c0-0.137-0.041-0.295,0.199-0.311c0.15-0.008,0.44,0.104,0.431-0.091
			C701.302,79.195,701.001,79.324,700.835,79.287z"/>
		<path fill="#1F2327" d="M696.176,79.291c-0.269-0.004-0.539-0.004-0.808-0.003c-0.062,0-0.126,0.019-0.117,0.103
			c0.006,0.06,0.053,0.088,0.104,0.08c0.354-0.05,0.323,0.188,0.313,0.415c-0.005,0.146,0,0.294,0,0.44c0,0,0,0,0.001,0
			c0,0.209-0.002,0.415,0.001,0.623c0,0.082-0.02,0.193,0.113,0.182c0.1-0.007,0.079-0.104,0.079-0.174
			c0.003-0.355,0.001-0.711,0-1.064c0-0.216-0.058-0.472,0.311-0.423c0.064,0.009,0.121-0.026,0.111-0.108
			C696.278,79.296,696.224,79.291,696.176,79.291z"/>
		<path fill="#1F2327" d="M717.87,79.477c-0.002-0.069,0.011-0.164-0.083-0.177c-0.126-0.018-0.127,0.093-0.128,0.175
			c-0.004,0.502-0.004,1-0.003,1.5c0,0.072,0.001,0.158,0.104,0.157c0.1-0.001,0.11-0.075,0.11-0.155c0-0.257,0-0.513,0-0.768
			C717.87,79.964,717.871,79.72,717.87,79.477z"/>
		<path fill="#1F2327" d="M708.263,79.301c-0.078,0.01-0.084,0.079-0.085,0.141c-0.001,0.518,0,1.031,0,1.545
			c0,0.078,0.004,0.156,0.112,0.146c0.084-0.007,0.08-0.076,0.081-0.138c0.002-0.246,0-0.492,0-0.736
			c0-0.269,0.003-0.539-0.001-0.81C708.37,79.378,708.375,79.287,708.263,79.301z"/>
		<path fill="#1F2327" d="M694.912,80.18c0-0.244,0.003-0.488-0.001-0.729c0-0.072-0.007-0.155-0.111-0.146
			c-0.082,0.008-0.081,0.08-0.081,0.141c-0.003,0.5-0.004,1-0.001,1.5c0,0.066-0.012,0.164,0.091,0.166
			c0.101,0.004,0.105-0.086,0.105-0.158c0.002-0.256,0.001-0.512,0.001-0.77C694.914,80.18,694.914,80.18,694.912,80.18z"/>
		<path fill="#1F2327" d="M683.509,69.229c0.373-0.121,0.562-0.434,0.687-0.771c0.201-0.547,0.221-1.104,0.046-1.664
			c-0.202-0.657-0.63-1.014-1.313-1.031c-0.542-0.018-1.084,0.008-1.623-0.009c-0.259-0.005-0.335,0.089-0.33,0.345
			c0.019,0.823,0.01,1.647,0.008,2.475c0,0.836,0.012,1.672-0.009,2.51c-0.005,0.299,0.156,0.302,0.369,0.301
			c0.207-0.001,0.394,0.016,0.381-0.292c-0.018-0.489,0.001-0.983-0.008-1.476c-0.005-0.2,0.062-0.279,0.272-0.291
			c0.292-0.016,0.478,0.076,0.611,0.348c0.229,0.449,0.512,0.871,0.733,1.321c0.151,0.305,0.353,0.405,0.692,0.397
			c0.337-0.011,0.354-0.106,0.207-0.359c-0.277-0.479-0.549-0.959-0.824-1.438C683.316,69.43,683.27,69.307,683.509,69.229z
			 M682.961,68.406c-0.306,0.006-0.614-0.014-0.919,0.006c-0.264,0.018-0.35-0.092-0.329-0.339c0.016-0.171,0.002-0.343,0.002-0.515
			c-0.001-0.848-0.001-0.848,0.838-0.848c0.053,0,0.102,0.003,0.146,0c0.316-0.021,0.639-0.002,0.803,0.314
			c0.183,0.355,0.165,0.738-0.017,1.101C683.383,68.33,683.18,68.402,682.961,68.406z"/>
		<path fill="#1F2327" d="M685.295,65.749c-0.318-0.008-0.395,0.117-0.388,0.41c0.016,0.8,0.005,1.601,0.005,2.397
			c0.001,0,0.002,0,0.005,0c0,0.824-0.004,1.647,0.001,2.474c0.001,0.149-0.049,0.342,0.21,0.342
			c0.849-0.001,1.699,0.028,2.546-0.015c0.401-0.022,0.175-0.407,0.211-0.627c0.038-0.222-0.085-0.334-0.326-0.323
			c-0.307,0.014-0.613,0.005-0.923,0.002c-1.038-0.001-1.025-0.001-1.011-1.045c0.005-0.279,0.104-0.36,0.369-0.349
			c0.405,0.018,0.812,0.008,1.217,0c0.62-0.01,0.557,0.109,0.579-0.564c0.01-0.284-0.091-0.357-0.36-0.348
			c-0.487,0.02-0.981-0.006-1.476,0.012c-0.263,0.008-0.351-0.092-0.33-0.348c0.019-0.244,0.025-0.492,0.005-0.735
			c-0.025-0.277,0.104-0.328,0.343-0.322c0.52,0.017,1.036-0.019,1.553,0.017c0.42,0.024,0.368-0.232,0.379-0.494
			c0.011-0.281,0.009-0.502-0.396-0.483C686.771,65.773,686.033,65.77,685.295,65.749z"/>
		<path fill="#1F2327" d="M686.891,73.432c-0.004,0.004-0.009,0.004-0.014,0.006c-0.004,0.006-0.007,0.015-0.01,0.021
			c0.005-0.004,0.01-0.008,0.015-0.015C686.885,73.438,686.888,73.436,686.891,73.432z"/>
		<path fill="#1F2327" d="M687.01,73.277c-0.048,0.061-0.083,0.105-0.119,0.154C686.951,73.406,686.99,73.363,687.01,73.277z"/>
	</g>
</g>
<g>
	<g>
		<path fill="#FFFFFF" d="M470.343,21.739c3.331,0,5.903,0.748,7.713,2.243c1.813,1.495,2.72,3.659,2.72,6.491
			c0,1.931-0.469,3.549-1.398,4.853c-0.932,1.303-2.23,2.305-3.896,3.006l6.482,12.023v0.256h-5.373L470.8,39.508h-5.592v11.104
			h-5.018V21.739H470.343 M465.207,35.461h5.154c1.691,0,3.016-0.426,3.967-1.278c0.951-0.854,1.428-2.02,1.428-3.5
			c0-1.547-0.438-2.743-1.316-3.589c-0.881-0.846-2.191-1.283-3.938-1.309h-5.294V35.461 M470.343,20.489H460.19h-1.25v1.25v28.872
			v1.25h1.25h5.018h1.25v-1.25v-9.854h3.584l5.44,10.435l0.351,0.672h0.758h5.373h1.25v-1.25v-0.256V50.04l-0.147-0.278
			l-5.868-10.881c1.306-0.736,2.377-1.684,3.194-2.829c1.083-1.515,1.634-3.392,1.634-5.58c0-3.211-1.067-5.72-3.175-7.455
			C476.82,21.34,473.957,20.489,470.343,20.489L470.343,20.489z M466.457,27.034h4.044c1.392,0.021,2.431,0.344,3.069,0.959
			c0.63,0.606,0.936,1.486,0.936,2.689c0,1.118-0.331,1.959-1.013,2.57c-0.71,0.636-1.766,0.958-3.132,0.958h-3.904V27.034
			L466.457,27.034z"/>
	</g>
	<g>
		<path fill="#FFFFFF" d="M506.176,21.739v4.045h-13.724v7.972h11.856v3.966h-11.856v8.883h13.859v4.006h-18.878V21.739H506.176
			 M507.426,20.489h-1.25h-18.74h-1.25v1.25v28.872v1.25h1.25h18.88h1.25v-1.25v-4.006v-1.25h-1.25h-12.611v-6.383h10.606h1.25
			v-1.25v-3.966v-1.25h-1.25h-10.606v-5.472h12.474h1.25v-1.25V21.74L507.426,20.489L507.426,20.489z"/>
	</g>
</g>
</svg>
